<svg width="26" height="26" viewBox="0 0 26 26" fill="none" xmlns="http://www.w3.org/2000/svg">
<g clip-path="url(#clip0)">
<path d="M22.9974 20.7667C23.0068 19.8417 23.6544 19.4923 23.6544 19.4923C23.6544 19.4923 21.1259 19.7053 21.0634 16.3617C21.0634 16.3617 20.8092 15.1626 15.1081 15.6573C14.6272 15.6992 13.4873 18.3609 13.4071 19.2186C13.3262 20.077 13.2622 20.7667 13.2622 20.7667H8.87404C8.9122 19.7323 9.70294 19.3957 10.147 19.0184C9.7705 15.7725 9.14112 12.6465 7.6425 12.5774C6.47423 12.5241 5.44192 12.1647 4.93755 11.7921C4.43282 11.4197 1.25429 11.3506 0.981302 11.0426C0.704308 10.7351 -0.149809 9.84782 0.0228348 9.47249C0.1912 9.09478 1.75119 8.68502 1.75119 8.68502C1.75119 8.68502 1.93886 8.24066 2.07517 7.96485C2.21185 7.69232 3.68342 7.17948 3.68342 7.17948C3.68342 7.17948 3.98774 6.22147 4.22703 5.8444C4.46806 5.46697 5.2537 6.49364 5.2537 6.49364C5.2537 6.49364 8.00317 6.49747 8.88024 6.22147C10.0757 5.8444 10.3683 5.14254 12.0595 5.12633C13.3744 5.11495 13.5901 6.01222 14.7715 6.06495C15.962 6.12104 18.1842 5.28723 21.2779 5.78795C24.3759 6.28885 25.5746 9.60761 25.8114 10.7378C26.0512 11.8648 25.1287 14.509 25.0243 15.6676C24.9204 16.8227 25.7787 17.6922 25.967 18.2855C26.152 18.8743 25.4982 20.7666 25.4982 20.7666C25.4982 20.7666 22.9943 21.0072 22.9974 20.7667Z" fill="#056571"/>
</g>
<defs>
<clipPath id="clip0">
<rect width="26" height="26" fill="white" transform="matrix(-1 0 0 1 26 0)"/>
</clipPath>
</defs>
</svg>
