<svg width="13" height="13" viewBox="0 0 13 13" fill="none" xmlns="http://www.w3.org/2000/svg">
<path fill-rule="evenodd" clip-rule="evenodd" d="M6.5 13C10.0899 13 13 10.0899 13 6.5C13 2.91015 10.0899 0 6.5 0C2.91015 0 0 2.91015 0 6.5C0 10.0899 2.91015 13 6.5 13ZM5.90918 7.63184H7.10059L7.34961 2.86133H5.66016L5.90918 7.63184ZM5.86035 8.68164C5.71387 8.82161 5.64062 9.02832 5.64062 9.30176C5.64062 9.56543 5.71549 9.77051 5.86523 9.91699C6.01497 10.0602 6.22656 10.1318 6.5 10.1318C6.76693 10.1318 6.97526 10.0586 7.125 9.91211C7.27474 9.76237 7.34961 9.55892 7.34961 9.30176C7.34961 9.03483 7.27474 8.82975 7.125 8.68652C6.97852 8.54329 6.77018 8.47168 6.5 8.47168C6.22005 8.47168 6.00684 8.54167 5.86035 8.68164Z" fill="white"/>
</svg>
