<svg width="26" height="21" viewBox="0 0 26 21" fill="none" xmlns="http://www.w3.org/2000/svg">
<path d="M25.9782 0C25.8172 0.178182 25.67 0.334033 25.5302 0.496922C24.6213 1.55659 23.5322 2.32031 22.1796 2.58332C21.443 2.7265 20.6834 2.73513 19.9408 2.85073C17.4564 3.23759 15.7649 4.61459 15.0237 7.17149C14.8306 7.83721 14.6251 8.50335 14.362 9.14092C14.1401 9.67918 13.8267 10.1765 13.537 10.7233C13.3872 10.5223 13.293 10.3962 13.1955 10.2655C13.3132 10.004 13.369 9.75363 13.1795 9.53388C13.1669 8.85418 13.2638 8.18367 13.4603 7.54817C13.6241 7.10295 13.836 6.67804 14.1098 6.28104C14.3665 5.90892 14.7332 5.61912 15.0508 5.29279C15.2558 5.08223 15.4955 4.89542 15.5451 4.51545C15.2445 4.5216 15.0751 4.66877 14.9357 4.8539C13.7941 5.96329 13.1156 7.5036 13.0418 9.1178C13.0407 9.11531 13.0396 9.11282 13.0387 9.11015C12.8922 7.65007 12.2605 6.27818 11.26 5.24761C11.2163 5.17451 11.1731 5.101 11.1294 5.02828C10.97 4.76434 10.7925 4.53445 10.4258 4.56927C10.4779 4.75129 10.5446 4.92319 10.6616 5.04034C10.8731 5.25244 11.1347 5.41129 11.3404 5.62837C12.2218 6.55958 12.6067 7.74404 12.8772 8.98249C12.8794 8.99244 12.8816 9.0022 12.8838 9.01196C12.8975 9.12816 12.908 9.24512 12.9154 9.36246C12.8955 9.43386 12.8489 9.50198 12.7561 9.56574C12.673 9.62297 12.6262 9.8674 12.6724 9.97479C12.8069 10.286 12.6289 10.4372 12.4517 10.6522C12.3436 10.4895 12.2521 10.3609 12.1695 10.2267C11.5751 9.26239 11.2439 8.18625 10.935 7.09825C10.6201 5.98919 10.0797 5.02105 9.224 4.26441C8.10117 3.27137 6.7692 2.82324 5.32958 2.77848C3.27321 2.71425 1.57491 1.93444 0.261479 0.271074C0.186591 0.176118 0.0877598 0.101664 0 0.0176399C0.214494 1.64826 0.783537 3.0762 1.89332 4.23504C1.23264 4.63509 1.16104 4.98366 1.59088 5.60458C1.70911 5.77554 1.83805 5.94509 1.98936 6.08274C2.29049 6.35686 2.61056 6.60837 2.92272 6.86908C2.53783 7.19466 2.48972 7.44083 2.84414 7.82037C3.24756 8.25236 3.70846 8.62603 4.15446 9.03429C3.94091 9.48584 4.00369 9.77775 4.47543 10.0741C4.74735 10.2448 5.0533 10.4274 5.35758 10.4581C6.19674 10.5427 7.04319 10.5845 7.88654 10.5792C8.80757 10.5733 9.71487 10.6284 10.606 10.8872C10.4426 10.9058 10.281 10.8942 10.1192 10.8874C9.13282 10.8456 8.164 10.9423 7.22627 11.2855C5.53971 11.9024 4.61099 13.2901 4.7028 15.0576C4.73768 15.7303 5.09151 15.9881 5.71289 15.795C5.79827 15.7684 5.88531 15.7477 5.91947 15.7383C5.99881 16.1564 6.02064 16.5756 6.16204 16.945C6.35813 17.4576 6.77609 17.3236 7.0864 17.1879C7.24594 17.5072 7.32398 17.9017 7.55112 18.0531C7.79203 18.2135 8.17453 18.143 8.53516 18.1773C8.38682 18.9995 8.12809 19.7723 7.44923 20.3098C7.16718 20.5332 6.83833 20.6195 6.43842 20.4411C6.53572 20.3801 6.59909 20.3504 6.65089 20.3058C6.85525 20.1302 6.9076 19.9097 6.76214 19.6777C6.61524 19.4435 6.39067 19.4212 6.1597 19.5292C5.91748 19.6425 5.79593 19.9989 5.88022 20.305C6.0128 20.786 6.46101 21.1016 6.93311 20.97C7.28366 20.8722 7.63654 20.7168 7.93861 20.5085C9.44597 19.4683 10.2612 17.9501 10.6588 16.1471C10.9369 14.8855 11.2351 13.6256 11.8552 12.4875C12.0179 12.1889 12.266 11.9408 12.4979 11.6396C12.7085 12.0165 12.8196 12.29 12.6038 12.5984C12.5451 12.6824 12.5185 12.812 12.5219 12.9192C12.5467 13.6869 12.5623 14.4564 12.6275 15.2209C12.6486 15.4681 12.8093 15.7024 12.9386 16.0228C13.0616 15.8467 13.1354 15.777 13.1666 15.6909C13.5364 14.6726 13.6077 13.619 13.3179 12.5833C13.2167 12.2219 13.2821 11.9844 13.4468 11.6016C13.6945 11.9116 13.9564 12.145 14.1009 12.4407C14.3759 13.0035 14.6264 13.5878 14.81 14.1887C15.0848 15.0879 15.271 16.0161 15.5346 16.9194C15.9881 18.475 16.8467 19.7335 18.1813 20.6012C18.4584 20.7813 18.7845 20.9151 19.1049 20.9802C19.7305 21.1075 20.3262 20.41 20.0715 19.853C19.9925 19.6803 19.7489 19.5364 19.5572 19.4939C19.454 19.4709 19.2467 19.6641 19.1831 19.8065C19.0803 20.0372 19.1923 20.2374 19.4214 20.3507C19.4546 20.3672 19.4752 20.4114 19.5086 20.4508C18.5697 20.7646 17.3489 19.3307 17.5047 18.1342C18.5166 18.1987 18.5223 18.3368 18.849 17.1727C19.5663 17.4242 19.8991 17.2092 19.9804 16.4241C20.0041 16.1957 19.9841 15.9626 19.9841 15.7028C20.1057 15.7425 20.1837 15.7687 20.2621 15.7932C20.902 15.9936 21.2935 15.7285 21.2665 15.0295C21.2452 14.4784 21.192 13.8983 21.0043 13.3904C20.4905 11.999 19.3646 11.349 18.043 11.086C17.1719 10.9126 16.2715 10.9003 15.4253 10.8197C15.8428 10.7581 16.3181 10.6429 16.7967 10.6268C17.7265 10.5958 18.658 10.6304 19.5886 10.6186C20.2654 10.6099 20.9198 10.4796 21.5004 10.0868C21.9703 9.76907 22.0449 9.48786 21.8072 8.97086C22.0123 8.825 22.2257 8.68815 22.4227 8.52906C22.6299 8.36176 22.8476 8.19578 23.0118 7.98757C23.1646 7.79386 23.313 7.55459 23.348 7.31688C23.3697 7.17027 23.1756 6.98918 23.0761 6.81958C23.6527 6.45322 24.1861 6.01584 24.5318 5.38089C24.7944 4.89894 24.6863 4.57274 24.2113 4.32123C24.1803 4.30476 24.1545 4.27778 24.1275 4.25273C24.2022 4.16852 24.2641 4.07394 24.3109 3.97232C25.351 2.55826 26.143 0.723942 25.9782 0ZM7.87367 17.8268C7.8878 17.8232 7.90158 17.8184 7.91535 17.8127C7.94492 17.8301 7.97484 17.8469 8.00536 17.8626C7.96143 17.8575 7.91733 17.8456 7.87367 17.8268Z" fill="#056571"/>
</svg>
