<svg width="13" height="13" viewBox="0 0 13 13" fill="none" xmlns="http://www.w3.org/2000/svg">
<path d="M6.5 0C2.91604 0 0 2.91604 0 6.5C0 10.084 2.91604 13 6.5 13C10.084 13 13 10.084 13 6.5C13 2.91604 10.084 0 6.5 0ZM10.1328 4.78947L5.9787 8.91103C5.73434 9.15539 5.34336 9.17168 5.08271 8.92732L2.88346 6.92356C2.62281 6.6792 2.60652 6.27193 2.83459 6.01128C3.07895 5.75063 3.48622 5.73434 3.74687 5.9787L5.48998 7.57519L9.20426 3.8609C9.46491 3.60025 9.87218 3.60025 10.1328 3.8609C10.3935 4.12155 10.3935 4.52882 10.1328 4.78947Z" fill="white"/>
</svg>
