<svg width="26" height="16" viewBox="0 0 26 16" fill="none" xmlns="http://www.w3.org/2000/svg">
<path d="M0.65057 1.19677H2.10524C2.46306 1.19677 2.89271 0.943897 3.05926 0.634596L3.09866 0.561813C3.26558 0.252875 3.69477 0 4.05258 0H5.57612C5.93356 0 6.44872 0.185817 6.72047 0.413069L9.95092 3.11237C10.2227 3.33999 10.7384 3.52608 11.0953 3.52608H16.261C18.2057 3.47755 19.7109 4.21492 19.7109 4.21492C20.0417 4.34776 20.5987 4.3971 20.9484 4.32404C20.9484 4.32404 23.142 3.99911 26 1.42502C26 1.42502 24.8914 4.30623 22.6591 6.13697C22.2123 6.50306 22.1568 6.61927 22.2899 6.94329L24.0174 11.1519C24.1502 11.4764 24.197 12.0217 24.1203 12.3637L23.4454 15.3789C23.3696 15.721 23.0137 16 22.6564 16H21.2688C20.9115 16 20.6184 15.7231 20.6184 15.3852C20.6184 15.0459 20.902 14.7097 21.2481 14.6362C21.5943 14.5627 21.9083 14.2189 21.9457 13.8706L22.0137 13.2399C22.0515 12.8914 21.867 12.4122 21.606 12.1737L19.4523 10.2126C19.1908 9.97407 19.0377 10.0588 19.1133 10.4008L19.4615 11.9855C19.5367 12.327 19.4567 12.8572 19.2842 13.1637L18.0742 15.31C17.9018 15.6164 17.4682 15.8596 17.1112 15.851L15.6889 15.816C15.3317 15.8075 15.1226 15.5685 15.2258 15.2852C15.3283 15.0016 15.6505 14.7547 15.9402 14.7357C16.2303 14.7177 16.5737 14.4365 16.7034 14.1104L17.1847 12.9002C17.3143 12.5738 17.2937 12.05 17.1394 11.734L16.4768 10.3856C16.3227 10.0712 15.903 9.81079 15.5455 9.80761L12.1844 9.78353C11.8272 9.78135 11.6315 10.0489 11.751 10.3786L13.5633 15.4002C13.6825 15.7305 13.4873 15.9894 13.1296 15.9761L10.8231 15.8909C10.4657 15.8773 10.2726 15.6497 10.3942 15.3845C10.5159 15.1193 10.845 14.8051 11.1259 14.6857C11.4071 14.5668 11.4575 14.2437 11.2384 13.9668L10.4017 12.9103C10.1823 12.6336 9.84404 12.6472 9.64934 12.941L7.97505 15.4669C7.78072 15.7598 7.32866 15.9998 6.97113 15.9998H5.44777C5.09024 15.9998 4.93113 15.7452 5.09368 15.4336L5.2501 15.1355C5.41302 14.8239 5.80652 14.5693 6.12446 14.5693C6.4425 14.5693 6.76434 14.2902 6.83999 13.9479L7.62095 10.4008C7.69614 10.0588 7.58369 9.54901 7.37123 9.26787L3.7892 4.52722C3.57692 4.24599 3.11149 3.98403 2.75609 3.94405L2.02439 3.86309C1.66899 3.82384 1.1845 3.57669 0.948439 3.31409L0.429564 2.73883C0.193127 2.47659 0 2.02191 0 1.72896C-0.000185013 1.43665 0.292664 1.19677 0.65057 1.19677Z" fill="#056571"/>
</svg>
