<svg width="15" height="15" viewBox="0 0 21 20" fill="none" xmlns="http://www.w3.org/2000/svg">
<path d="M0.745857 7.80892C1.02026 8.08599 1.42457 8.08599 1.55746 8.08599C1.80388 8.08599 2.10855 8.04713 2.54512 7.9599C2.88803 7.8914 3.1833 7.82309 3.44368 7.76293C3.95588 7.64444 4.32607 7.55877 4.67454 7.55877C4.87096 7.55877 5.22933 7.63982 5.60886 7.72569C6.19975 7.85938 6.93508 8.02569 7.64634 8.02569C8.36444 8.02569 9.12028 7.97252 9.59651 7.93148C9.75469 8.49621 10.131 9.42747 10.9852 10.0941C12.1466 11.0002 13.0076 11.4045 13.0437 11.4212C13.2643 11.5237 13.5295 11.47 13.6871 11.2909C13.8447 11.1119 13.8541 10.8537 13.7098 10.6648C13.705 10.6584 13.1246 9.87696 13.1469 8.99874C13.1557 8.64936 13.169 8.37561 13.1826 8.16711C13.906 8.37019 15.1377 8.82415 15.773 9.6787C16.7354 10.973 17.1303 12.9658 17.0245 13.6195C16.9144 14.3006 16.9012 14.3006 16.5619 14.3006C15.8225 14.3006 15.2013 14.3295 14.5017 14.6922C13.8828 15.013 13.5419 15.3639 13.5052 15.4029C13.3664 15.5497 13.3294 15.7599 13.4104 15.9417C13.4914 16.1237 13.6756 16.2445 13.8829 16.2515C14.0829 16.2587 14.6881 16.3067 15.077 16.4411C15.2835 16.5125 15.4614 16.5961 15.6335 16.677C15.9087 16.8063 16.1688 16.9285 16.4721 16.9626C16.5707 16.9737 16.672 16.9791 16.7678 16.9774C16.8797 17.2248 17.0699 17.5196 17.39 17.7536C17.635 17.9327 17.8843 18.0432 18.1042 18.1406C18.3742 18.2603 18.5876 18.3549 18.7514 18.5483C19.1807 19.0553 19.3248 19.605 19.3261 19.6105C19.3823 19.8301 19.5841 19.9892 19.8211 19.9995C19.8293 19.9999 19.8376 20 19.8458 20C20.073 20 20.2769 19.8635 20.351 19.6571C20.3844 19.5643 20.666 18.7145 20.2913 17.4707C20.1573 17.026 19.9498 16.6411 19.7492 16.2687C19.4227 15.6631 19.1408 15.1401 19.2591 14.4992C19.8151 11.4869 19.7767 9.03767 19.145 7.21977C18.1628 4.39247 15.785 2.81719 15.3183 2.53022C15.0867 2.38771 14.8783 2.26237 14.7027 2.15819C14.8656 2.03461 15.0726 1.90478 15.3188 1.80515C15.879 1.57833 16.1144 1.51634 16.1796 1.50155C16.1838 1.50169 16.1879 1.50169 16.192 1.50169C16.4245 1.50176 16.6033 1.35552 16.6713 1.13956C16.7419 0.915325 16.6107 0.674607 16.3991 0.555571C16.3588 0.532849 15.3965 0 14.1281 0C13.8664 0 13.6064 0.0228577 13.3553 0.0679626C12.5732 0.208568 12.0204 0.418628 11.4858 0.621702C10.9638 0.820028 10.4708 1.00737 9.73468 1.15503C9.37709 1.22679 9.04777 1.28213 8.72936 1.33572C7.63381 1.51993 6.68767 1.67906 5.27306 2.36703C3.4268 3.26505 2.38865 4.2476 2.34977 5.13348C2.34158 5.32021 2.34585 5.48706 2.36266 5.63371C2.18988 5.71598 1.97993 5.81996 1.76784 5.93486C0.904459 6.40253 0.542387 6.75278 0.518244 7.14367C0.501507 7.41566 0.578068 7.63942 0.745857 7.80892Z" fill="#056571"/>
</svg>
