<svg width="34" height="9" viewBox="0 0 34 9" fill="none" xmlns="http://www.w3.org/2000/svg">
<path d="M13.7695 1.83121C14.6159 0.993237 15.5924 0.574249 16.6992 0.574249C17.806 0.574249 18.7826 0.993237 19.6289 1.83121C20.4753 2.66919 20.8984 3.63608 20.8984 4.73189C20.8984 5.82771 20.4753 6.7946 19.6289 7.63258C18.7826 8.47055 17.806 8.88954 16.6992 8.88954C15.5924 8.88954 14.6159 8.47055 13.7695 7.63258C12.9232 6.7946 12.5 5.82771 12.5 4.73189C12.5 3.63608 12.9232 2.66919 13.7695 1.83121ZM26.2695 1.83121C27.1159 0.993237 28.0924 0.574249 29.1992 0.574249C30.306 0.574249 31.2826 0.993237 32.1289 1.83121C32.9753 2.66919 33.3984 3.63608 33.3984 4.73189C33.3984 5.82771 32.9753 6.7946 32.1289 7.63258C31.2826 8.47055 30.306 8.88954 29.1992 8.88954C28.0924 8.88954 27.1159 8.47055 26.2695 7.63258C25.4232 6.7946 25 5.82771 25 4.73189C25 3.63608 25.4232 2.66919 26.2695 1.83121ZM1.26953 1.83121C2.11589 0.993237 3.09245 0.574249 4.19922 0.574249C5.30599 0.574249 6.28255 0.993237 7.12891 1.83121C7.97526 2.66919 8.39844 3.63608 8.39844 4.73189C8.39844 5.82771 7.97526 6.7946 7.12891 7.63258C6.28255 8.47055 5.30599 8.88954 4.19922 8.88954C3.09245 8.88954 2.11589 8.47055 1.26953 7.63258C0.423177 6.7946 0 5.82771 0 4.73189C0 3.63608 0.423177 2.66919 1.26953 1.83121Z" fill="#A1A1A1"/>
</svg>
