<svg width="13" height="13" viewBox="0 0 13 13" fill="none" xmlns="http://www.w3.org/2000/svg">
<path fill-rule="evenodd" clip-rule="evenodd" d="M6.5 13C10.0899 13 13 10.0899 13 6.5C13 2.91015 10.0899 0 6.5 0C2.91015 0 0 2.91015 0 6.5C0 10.0899 2.91015 13 6.5 13ZM7.03849 6.99999L9.80774 9.07691C10.1478 9.33154 10.217 9.81385 9.96155 10.1531C9.81077 10.3562 9.57999 10.4616 9.34538 10.4616C9.18463 10.4616 9.02306 10.4116 8.88461 10.3077L5.8077 8.00004C5.61385 7.85543 5.5 7.62694 5.5 7.38465V2.76925C5.5 2.34385 5.84385 2 6.26925 2C6.69464 2 7.03849 2.34385 7.03849 2.76925V6.99999Z" fill="white"/>
</svg>
