<svg width="300" height="358" viewBox="0 0 300 358" fill="none" xmlns="http://www.w3.org/2000/svg">
<path d="M175.082 167.735C175.082 115.837 219.49 92.2245 243.918 92.2245C268.347 92.2245 278.612 114.163 278.612 128.061C278.612 141.959 265.061 159.449 249.735 159.449C234.408 159.449 239.082 151.286 223.204 151.286C191.327 152.612 189.204 200.878 225.245 201.694C244.367 199.449 246.837 186.347 248.061 179.878C248.592 173.102 261.429 174 258.408 185.061C255.388 196.122 238.571 214.286 219.306 214.286C200.041 214.286 175.082 202.674 175.082 167.735Z" fill="#FF7F11"/>
<path d="M17.8163 176.041C32.898 159.551 61.5102 116.02 76.4286 95.0204C76.4286 95.0204 112.143 63.5714 101.918 111.633C92.449 154.796 74.8776 173.959 77.7347 192.469C77.7347 192.469 80.4286 217.286 96.551 194C108.653 170.735 111.857 150 121.306 151.143C130.755 152.286 123.347 170.286 116.245 190.449C118.061 200.408 147.041 150.367 157.878 151.041C168.714 151.714 159.265 216.347 145.857 211.878C132.449 207.408 146.306 170.02 147.898 164.102C134.551 179.918 98.2449 235.898 98.9184 194.204C91.5715 207.388 77.5306 219.775 66.4082 213.775C49.8368 204.857 56.8368 146.429 62.5306 132.286C53.0612 154.878 21.3674 185.469 17.8163 176.041Z" fill="#CCDFCB"/>
<path d="M71.2668 257.804C71.2668 258.428 71.0388 258.956 70.5828 259.388C70.1268 259.796 69.5988 260 68.9988 260C68.3508 260 67.8108 259.796 67.3788 259.388C66.9708 258.956 66.7668 258.428 66.7668 257.804V236.996C66.7668 236.372 66.9828 235.856 67.4148 235.448C67.8468 235.016 68.3988 234.8 69.0708 234.8C69.6708 234.8 70.1868 235.016 70.6188 235.448C71.0508 235.856 71.2668 236.372 71.2668 236.996V257.804ZM86.3169 240.38C88.7649 240.38 90.4569 241.112 91.3929 242.576C92.3289 244.016 92.7969 246.02 92.7969 248.588V257.804C92.7969 258.428 92.5929 258.956 92.1849 259.388C91.7769 259.796 91.2609 260 90.6369 260C90.0129 260 89.4969 259.796 89.0889 259.388C88.6809 258.956 88.4769 258.428 88.4769 257.804V248.588C88.4769 247.268 88.2009 246.236 87.6489 245.492C87.0969 244.724 86.1489 244.34 84.8049 244.34C83.4129 244.34 82.3209 244.748 81.5289 245.564C80.7369 246.356 80.3409 247.364 80.3409 248.588V257.804C80.3409 258.428 80.1369 258.956 79.7289 259.388C79.3209 259.796 78.8049 260 78.1809 260C77.5569 260 77.0409 259.796 76.6329 259.388C76.2249 258.956 76.0209 258.428 76.0209 257.804V242.936C76.0209 242.312 76.2249 241.796 76.6329 241.388C77.0409 240.956 77.5569 240.74 78.1809 240.74C78.8049 240.74 79.3209 240.956 79.7289 241.388C80.1369 241.796 80.3409 242.312 80.3409 242.936V243.548C80.9889 242.684 81.8289 241.94 82.8609 241.316C83.9169 240.692 85.0689 240.38 86.3169 240.38Z" fill="#CCDFCB"/>
<path d="M115.166 236.024C115.91 236.408 116.282 237.02 116.282 237.86C116.282 238.364 116.102 238.856 115.742 239.336C115.358 239.84 114.866 240.092 114.266 240.092C113.858 240.092 113.45 239.984 113.042 239.768C111.866 239.216 110.594 238.94 109.226 238.94C107.546 238.94 106.082 239.3 104.834 240.02C103.586 240.716 102.626 241.712 101.954 243.008C101.282 244.28 100.946 245.744 100.946 247.4C100.946 250.232 101.702 252.38 103.214 253.844C104.75 255.308 106.754 256.04 109.226 256.04C110.69 256.04 111.962 255.764 113.042 255.212C113.474 255.02 113.858 254.924 114.194 254.924C114.818 254.924 115.346 255.188 115.778 255.716C116.138 256.172 116.318 256.664 116.318 257.192C116.318 257.576 116.222 257.924 116.03 258.236C115.838 258.548 115.562 258.788 115.202 258.956C113.33 259.892 111.338 260.36 109.226 260.36C106.874 260.36 104.714 259.868 102.746 258.884C100.778 257.876 99.2062 256.4 98.0302 254.456C96.8542 252.512 96.2662 250.16 96.2662 247.4C96.2662 244.952 96.8182 242.756 97.9222 240.812C99.0502 238.868 100.598 237.356 102.566 236.276C104.534 235.172 106.754 234.62 109.226 234.62C111.362 234.62 113.342 235.088 115.166 236.024ZM129.444 240.38C130.164 240.38 130.764 240.584 131.244 240.992C131.748 241.4 132 241.88 132 242.432C132 243.176 131.808 243.74 131.424 244.124C131.04 244.484 130.584 244.664 130.056 244.664C129.696 244.664 129.288 244.58 128.832 244.412C128.76 244.388 128.592 244.34 128.328 244.268C128.088 244.196 127.824 244.16 127.536 244.16C126.912 244.16 126.312 244.352 125.736 244.736C125.16 245.12 124.68 245.708 124.296 246.5C123.936 247.268 123.756 248.192 123.756 249.272V257.804C123.756 258.428 123.552 258.956 123.144 259.388C122.736 259.796 122.22 260 121.596 260C120.972 260 120.456 259.796 120.048 259.388C119.64 258.956 119.436 258.428 119.436 257.804V242.936C119.436 242.312 119.64 241.796 120.048 241.388C120.456 240.956 120.972 240.74 121.596 240.74C122.22 240.74 122.736 240.956 123.144 241.388C123.552 241.796 123.756 242.312 123.756 242.936V243.404C124.308 242.42 125.1 241.676 126.132 241.172C127.164 240.644 128.268 240.38 129.444 240.38ZM151.217 249.92C151.193 250.496 150.965 250.964 150.533 251.324C150.101 251.684 149.597 251.864 149.021 251.864H137.141C137.429 253.28 138.089 254.396 139.121 255.212C140.153 256.004 141.317 256.4 142.613 256.4C143.597 256.4 144.365 256.316 144.917 256.148C145.469 255.956 145.901 255.764 146.213 255.572C146.549 255.356 146.777 255.212 146.897 255.14C147.329 254.924 147.737 254.816 148.121 254.816C148.625 254.816 149.057 254.996 149.417 255.356C149.777 255.716 149.957 256.136 149.957 256.616C149.957 257.264 149.621 257.852 148.949 258.38C148.277 258.932 147.377 259.4 146.249 259.784C145.121 260.168 143.981 260.36 142.829 260.36C140.813 260.36 139.049 259.94 137.537 259.1C136.049 258.26 134.897 257.108 134.081 255.644C133.265 254.156 132.857 252.488 132.857 250.64C132.857 248.576 133.289 246.764 134.153 245.204C135.017 243.644 136.157 242.456 137.573 241.64C138.989 240.8 140.501 240.38 142.109 240.38C143.693 240.38 145.181 240.812 146.573 241.676C147.989 242.54 149.117 243.704 149.957 245.168C150.797 246.632 151.217 248.216 151.217 249.92ZM142.109 244.34C139.325 244.34 137.681 245.648 137.177 248.264H146.609V248.012C146.513 247.004 146.021 246.14 145.133 245.42C144.245 244.7 143.237 244.34 142.109 244.34ZM170.108 233.36C170.732 233.36 171.248 233.564 171.656 233.972C172.064 234.38 172.268 234.908 172.268 235.556V257.804C172.268 258.428 172.064 258.956 171.656 259.388C171.248 259.796 170.732 260 170.108 260C169.484 260 168.968 259.796 168.56 259.388C168.176 258.98 167.972 258.464 167.948 257.84C167.348 258.536 166.532 259.136 165.5 259.64C164.492 260.12 163.424 260.36 162.296 260.36C160.64 260.36 159.14 259.94 157.796 259.1C156.452 258.236 155.384 257.048 154.592 255.536C153.824 254.024 153.44 252.308 153.44 250.388C153.44 248.468 153.824 246.752 154.592 245.24C155.36 243.704 156.404 242.516 157.724 241.676C159.068 240.812 160.544 240.38 162.152 240.38C163.304 240.38 164.384 240.596 165.392 241.028C166.4 241.436 167.252 241.964 167.948 242.612V235.556C167.948 234.932 168.152 234.416 168.56 234.008C168.968 233.576 169.484 233.36 170.108 233.36ZM162.836 256.4C164.396 256.4 165.668 255.836 166.652 254.708C167.636 253.556 168.128 252.116 168.128 250.388C168.128 248.66 167.636 247.22 166.652 246.068C165.668 244.916 164.396 244.34 162.836 244.34C161.3 244.34 160.04 244.916 159.056 246.068C158.072 247.22 157.58 248.66 157.58 250.388C157.58 252.116 158.06 253.556 159.02 254.708C160.004 255.836 161.276 256.4 162.836 256.4ZM180.718 257.804C180.718 258.428 180.514 258.956 180.106 259.388C179.698 259.796 179.182 260 178.558 260C177.934 260 177.418 259.796 177.01 259.388C176.602 258.956 176.398 258.428 176.398 257.804V242.936C176.398 242.312 176.602 241.796 177.01 241.388C177.418 240.956 177.934 240.74 178.558 240.74C179.182 240.74 179.698 240.956 180.106 241.388C180.514 241.796 180.718 242.312 180.718 242.936V257.804ZM178.522 238.4C177.706 238.4 177.13 238.268 176.794 238.004C176.458 237.74 176.29 237.272 176.29 236.6V235.916C176.29 235.244 176.47 234.776 176.83 234.512C177.19 234.248 177.766 234.116 178.558 234.116C179.398 234.116 179.986 234.248 180.322 234.512C180.658 234.776 180.826 235.244 180.826 235.916V236.6C180.826 237.296 180.646 237.776 180.286 238.04C179.95 238.28 179.362 238.4 178.522 238.4ZM194.83 240.38C196.486 240.38 197.986 240.812 199.33 241.676C200.674 242.516 201.73 243.692 202.498 245.204C203.29 246.716 203.686 248.432 203.686 250.352C203.686 252.272 203.302 254 202.534 255.536C201.766 257.048 200.71 258.236 199.366 259.1C198.046 259.94 196.582 260.36 194.974 260.36C193.822 260.36 192.73 260.132 191.698 259.676C190.69 259.196 189.85 258.62 189.178 257.948V258.164C189.178 258.788 188.974 259.316 188.566 259.748C188.158 260.156 187.642 260.36 187.018 260.36C186.394 260.36 185.878 260.156 185.47 259.748C185.062 259.34 184.858 258.812 184.858 258.164V235.556C184.858 234.932 185.062 234.416 185.47 234.008C185.878 233.576 186.394 233.36 187.018 233.36C187.642 233.36 188.158 233.576 188.566 234.008C188.974 234.416 189.178 234.932 189.178 235.556V243.08C189.754 242.36 190.558 241.736 191.59 241.208C192.622 240.656 193.702 240.38 194.83 240.38ZM194.29 256.4C195.826 256.4 197.086 255.824 198.07 254.672C199.054 253.52 199.546 252.08 199.546 250.352C199.546 248.624 199.054 247.196 198.07 246.068C197.11 244.916 195.85 244.34 194.29 244.34C192.73 244.34 191.458 244.916 190.474 246.068C189.49 247.196 188.998 248.624 188.998 250.352C188.998 252.08 189.49 253.52 190.474 254.672C191.458 255.824 192.73 256.4 194.29 256.4ZM211.667 257.804C211.667 258.428 211.451 258.956 211.019 259.388C210.611 259.796 210.095 260 209.471 260C208.871 260 208.367 259.796 207.959 259.388C207.551 258.956 207.347 258.428 207.347 257.804V235.556C207.347 234.932 207.551 234.416 207.959 234.008C208.391 233.576 208.919 233.36 209.543 233.36C210.143 233.36 210.647 233.576 211.055 234.008C211.463 234.416 211.667 234.932 211.667 235.556V257.804ZM233.67 249.92C233.646 250.496 233.418 250.964 232.986 251.324C232.554 251.684 232.05 251.864 231.474 251.864H219.594C219.882 253.28 220.542 254.396 221.574 255.212C222.606 256.004 223.77 256.4 225.066 256.4C226.05 256.4 226.818 256.316 227.37 256.148C227.922 255.956 228.354 255.764 228.666 255.572C229.002 255.356 229.23 255.212 229.35 255.14C229.782 254.924 230.19 254.816 230.574 254.816C231.078 254.816 231.51 254.996 231.87 255.356C232.23 255.716 232.41 256.136 232.41 256.616C232.41 257.264 232.074 257.852 231.402 258.38C230.73 258.932 229.83 259.4 228.702 259.784C227.574 260.168 226.434 260.36 225.282 260.36C223.266 260.36 221.502 259.94 219.99 259.1C218.502 258.26 217.35 257.108 216.534 255.644C215.718 254.156 215.31 252.488 215.31 250.64C215.31 248.576 215.742 246.764 216.606 245.204C217.47 243.644 218.61 242.456 220.026 241.64C221.442 240.8 222.954 240.38 224.562 240.38C226.146 240.38 227.634 240.812 229.026 241.676C230.442 242.54 231.57 243.704 232.41 245.168C233.25 246.632 233.67 248.216 233.67 249.92ZM224.562 244.34C221.778 244.34 220.134 245.648 219.63 248.264H229.062V248.012C228.966 247.004 228.474 246.14 227.586 245.42C226.698 244.7 225.69 244.34 224.562 244.34Z" fill="#FF7F11"/>
<path d="M26.0052 334.192C24.8639 334.192 23.8292 333.947 22.9012 333.456C21.9839 332.955 21.2585 332.267 20.7252 331.392C20.2025 330.507 19.9412 329.509 19.9412 328.4C19.9412 327.291 20.2025 326.299 20.7252 325.424C21.2585 324.539 21.9839 323.851 22.9012 323.36C23.8292 322.859 24.8692 322.608 26.0212 322.608C26.9919 322.608 27.8665 322.779 28.6452 323.12C29.4345 323.461 30.0959 323.952 30.6292 324.592L28.9652 326.128C28.2079 325.253 27.2692 324.816 26.1492 324.816C25.4559 324.816 24.8372 324.971 24.2932 325.28C23.7492 325.579 23.3225 326 23.0132 326.544C22.7145 327.088 22.5652 327.707 22.5652 328.4C22.5652 329.093 22.7145 329.712 23.0132 330.256C23.3225 330.8 23.7492 331.227 24.2932 331.536C24.8372 331.835 25.4559 331.984 26.1492 331.984C27.2692 331.984 28.2079 331.541 28.9652 330.656L30.6292 332.192C30.0959 332.843 29.4345 333.339 28.6452 333.68C27.8559 334.021 26.9759 334.192 26.0052 334.192ZM34.2876 326.528C34.5862 326.112 34.9862 325.797 35.4876 325.584C35.9996 325.371 36.5862 325.264 37.2476 325.264V327.568C36.9702 327.547 36.7836 327.536 36.6876 327.536C35.9729 327.536 35.4129 327.739 35.0076 328.144C34.6022 328.539 34.3996 329.136 34.3996 329.936V334H31.9036V325.392H34.2876V326.528ZM46.7856 329.728C46.7856 329.76 46.7696 329.984 46.7376 330.4H40.2256C40.3429 330.933 40.6202 331.355 41.0576 331.664C41.4949 331.973 42.0389 332.128 42.6896 332.128C43.1376 332.128 43.5322 332.064 43.8736 331.936C44.2256 331.797 44.5509 331.584 44.8496 331.296L46.1776 332.736C45.3669 333.664 44.1829 334.128 42.6256 334.128C41.6549 334.128 40.7962 333.941 40.0496 333.568C39.3029 333.184 38.7269 332.656 38.3216 331.984C37.9162 331.312 37.7136 330.549 37.7136 329.696C37.7136 328.853 37.9109 328.096 38.3056 327.424C38.7109 326.741 39.2602 326.213 39.9536 325.84C40.6576 325.456 41.4416 325.264 42.3056 325.264C43.1482 325.264 43.9109 325.445 44.5936 325.808C45.2762 326.171 45.8096 326.693 46.1936 327.376C46.5882 328.048 46.7856 328.832 46.7856 329.728ZM42.3216 327.152C41.7562 327.152 41.2816 327.312 40.8976 327.632C40.5136 327.952 40.2789 328.389 40.1936 328.944H44.4336C44.3482 328.4 44.1136 327.968 43.7296 327.648C43.3456 327.317 42.8762 327.152 42.3216 327.152ZM51.3849 325.264C52.7183 325.264 53.7423 325.584 54.4569 326.224C55.1716 326.853 55.5289 327.808 55.5289 329.088V334H53.1929V332.928C52.7236 333.728 51.8489 334.128 50.5689 334.128C49.9076 334.128 49.3316 334.016 48.8409 333.792C48.3609 333.568 47.9929 333.259 47.7369 332.864C47.4809 332.469 47.3529 332.021 47.3529 331.52C47.3529 330.72 47.6516 330.091 48.2489 329.632C48.8569 329.173 49.7903 328.944 51.0489 328.944H53.0329C53.0329 328.4 52.8676 327.984 52.5369 327.696C52.2063 327.397 51.7103 327.248 51.0489 327.248C50.5903 327.248 50.1369 327.323 49.6889 327.472C49.2516 327.611 48.8783 327.803 48.5689 328.048L47.6729 326.304C48.1423 325.973 48.7023 325.717 49.3529 325.536C50.0143 325.355 50.6916 325.264 51.3849 325.264ZM51.1929 332.448C51.6196 332.448 51.9983 332.352 52.3289 332.16C52.6596 331.957 52.8943 331.664 53.0329 331.28V330.4H51.3209C50.2969 330.4 49.7849 330.736 49.7849 331.408C49.7849 331.728 49.9076 331.984 50.1529 332.176C50.4089 332.357 50.7556 332.448 51.1929 332.448ZM63.0399 333.584C62.7946 333.765 62.4906 333.904 62.1279 334C61.7759 334.085 61.4026 334.128 61.0079 334.128C59.9839 334.128 59.1893 333.867 58.6239 333.344C58.0693 332.821 57.7919 332.053 57.7919 331.04V327.504H56.4639V325.584H57.7919V323.488H60.2879V325.584H62.4319V327.504H60.2879V331.008C60.2879 331.371 60.3786 331.653 60.5599 331.856C60.7519 332.048 61.0186 332.144 61.3599 332.144C61.7546 332.144 62.0906 332.037 62.3679 331.824L63.0399 333.584ZM72.3074 329.728C72.3074 329.76 72.2914 329.984 72.2594 330.4H65.7474C65.8648 330.933 66.1421 331.355 66.5794 331.664C67.0168 331.973 67.5608 332.128 68.2114 332.128C68.6594 332.128 69.0541 332.064 69.3954 331.936C69.7474 331.797 70.0728 331.584 70.3714 331.296L71.6994 332.736C70.8888 333.664 69.7048 334.128 68.1474 334.128C67.1768 334.128 66.3181 333.941 65.5714 333.568C64.8248 333.184 64.2488 332.656 63.8434 331.984C63.4381 331.312 63.2354 330.549 63.2354 329.696C63.2354 328.853 63.4328 328.096 63.8274 327.424C64.2328 326.741 64.7821 326.213 65.4754 325.84C66.1794 325.456 66.9634 325.264 67.8274 325.264C68.6701 325.264 69.4328 325.445 70.1154 325.808C70.7981 326.171 71.3314 326.693 71.7154 327.376C72.1101 328.048 72.3074 328.832 72.3074 329.728ZM67.8434 327.152C67.2781 327.152 66.8034 327.312 66.4194 327.632C66.0354 327.952 65.8008 328.389 65.7154 328.944H69.9554C69.8701 328.4 69.6354 327.968 69.2514 327.648C68.8674 327.317 68.3981 327.152 67.8434 327.152ZM80.7964 334.128C80.0818 334.128 79.3831 334.043 78.7004 333.872C78.0178 333.691 77.4738 333.467 77.0684 333.2L77.9004 331.408C78.2844 331.653 78.7484 331.856 79.2924 332.016C79.8364 332.165 80.3698 332.24 80.8924 332.24C81.9484 332.24 82.4764 331.979 82.4764 331.456C82.4764 331.211 82.3324 331.035 82.0444 330.928C81.7564 330.821 81.3138 330.731 80.7164 330.656C80.0124 330.549 79.4311 330.427 78.9724 330.288C78.5138 330.149 78.1138 329.904 77.7724 329.552C77.4418 329.2 77.2764 328.699 77.2764 328.048C77.2764 327.504 77.4311 327.024 77.7404 326.608C78.0604 326.181 78.5191 325.851 79.1164 325.616C79.7244 325.381 80.4391 325.264 81.2604 325.264C81.8684 325.264 82.4711 325.333 83.0684 325.472C83.6764 325.6 84.1778 325.781 84.5724 326.016L83.7404 327.792C82.9831 327.365 82.1564 327.152 81.2604 327.152C80.7271 327.152 80.3271 327.227 80.0604 327.376C79.7938 327.525 79.6604 327.717 79.6604 327.952C79.6604 328.219 79.8044 328.405 80.0924 328.512C80.3804 328.619 80.8391 328.72 81.4684 328.816C82.1724 328.933 82.7484 329.061 83.1964 329.2C83.6444 329.328 84.0338 329.568 84.3644 329.92C84.6951 330.272 84.8604 330.763 84.8604 331.392C84.8604 331.925 84.7004 332.4 84.3804 332.816C84.0604 333.232 83.5911 333.557 82.9724 333.792C82.3644 334.016 81.6391 334.128 80.7964 334.128ZM90.1964 334.128C89.2898 334.128 88.4738 333.941 87.7484 333.568C87.0338 333.184 86.4738 332.656 86.0684 331.984C85.6631 331.312 85.4604 330.549 85.4604 329.696C85.4604 328.843 85.6631 328.08 86.0684 327.408C86.4738 326.736 87.0338 326.213 87.7484 325.84C88.4738 325.456 89.2898 325.264 90.1964 325.264C91.1031 325.264 91.9138 325.456 92.6284 325.84C93.3431 326.213 93.9031 326.736 94.3084 327.408C94.7138 328.08 94.9164 328.843 94.9164 329.696C94.9164 330.549 94.7138 331.312 94.3084 331.984C93.9031 332.656 93.3431 333.184 92.6284 333.568C91.9138 333.941 91.1031 334.128 90.1964 334.128ZM90.1964 332.08C90.8364 332.08 91.3591 331.867 91.7644 331.44C92.1804 331.003 92.3884 330.421 92.3884 329.696C92.3884 328.971 92.1804 328.395 91.7644 327.968C91.3591 327.531 90.8364 327.312 90.1964 327.312C89.5564 327.312 89.0284 327.531 88.6124 327.968C88.1964 328.395 87.9884 328.971 87.9884 329.696C87.9884 330.421 88.1964 331.003 88.6124 331.44C89.0284 331.867 89.5564 332.08 90.1964 332.08ZM107.309 325.264C108.386 325.264 109.239 325.584 109.869 326.224C110.509 326.853 110.829 327.803 110.829 329.072V334H108.333V329.456C108.333 328.773 108.189 328.267 107.901 327.936C107.623 327.595 107.223 327.424 106.701 327.424C106.114 327.424 105.65 327.616 105.309 328C104.967 328.373 104.797 328.933 104.797 329.68V334H102.301V329.456C102.301 328.101 101.757 327.424 100.669 327.424C100.093 327.424 99.6341 327.616 99.2928 328C98.9515 328.373 98.7808 328.933 98.7808 329.68V334H96.2848V325.392H98.6688V326.384C98.9888 326.021 99.3781 325.744 99.8368 325.552C100.306 325.36 100.818 325.264 101.373 325.264C101.981 325.264 102.53 325.387 103.021 325.632C103.511 325.867 103.906 326.213 104.205 326.672C104.557 326.224 104.999 325.877 105.533 325.632C106.077 325.387 106.669 325.264 107.309 325.264ZM121.292 329.728C121.292 329.76 121.276 329.984 121.244 330.4H114.732C114.849 330.933 115.126 331.355 115.564 331.664C116.001 331.973 116.545 332.128 117.196 332.128C117.644 332.128 118.038 332.064 118.38 331.936C118.732 331.797 119.057 331.584 119.356 331.296L120.684 332.736C119.873 333.664 118.689 334.128 117.132 334.128C116.161 334.128 115.302 333.941 114.556 333.568C113.809 333.184 113.233 332.656 112.828 331.984C112.422 331.312 112.22 330.549 112.22 329.696C112.22 328.853 112.417 328.096 112.812 327.424C113.217 326.741 113.766 326.213 114.46 325.84C115.164 325.456 115.948 325.264 116.812 325.264C117.654 325.264 118.417 325.445 119.1 325.808C119.782 326.171 120.316 326.693 120.7 327.376C121.094 328.048 121.292 328.832 121.292 329.728ZM116.828 327.152C116.262 327.152 115.788 327.312 115.404 327.632C115.02 327.952 114.785 328.389 114.7 328.944H118.94C118.854 328.4 118.62 327.968 118.236 327.648C117.852 327.317 117.382 327.152 116.828 327.152ZM128.206 333.584C127.96 333.765 127.656 333.904 127.294 334C126.942 334.085 126.568 334.128 126.174 334.128C125.15 334.128 124.355 333.867 123.79 333.344C123.235 332.821 122.958 332.053 122.958 331.04V327.504H121.63V325.584H122.958V323.488H125.454V325.584H127.598V327.504H125.454V331.008C125.454 331.371 125.544 331.653 125.726 331.856C125.918 332.048 126.184 332.144 126.526 332.144C126.92 332.144 127.256 332.037 127.534 331.824L128.206 333.584ZM134.539 325.264C135.605 325.264 136.464 325.584 137.115 326.224C137.776 326.864 138.107 327.813 138.107 329.072V334H135.611V329.456C135.611 328.773 135.461 328.267 135.163 327.936C134.864 327.595 134.432 327.424 133.867 327.424C133.237 327.424 132.736 327.621 132.363 328.016C131.989 328.4 131.803 328.976 131.803 329.744V334H129.307V322.128H131.803V326.288C132.133 325.957 132.533 325.707 133.003 325.536C133.472 325.355 133.984 325.264 134.539 325.264ZM140.069 325.392H142.565V334H140.069V325.392ZM141.317 324.192C140.859 324.192 140.485 324.059 140.197 323.792C139.909 323.525 139.765 323.195 139.765 322.8C139.765 322.405 139.909 322.075 140.197 321.808C140.485 321.541 140.859 321.408 141.317 321.408C141.776 321.408 142.149 321.536 142.437 321.792C142.725 322.048 142.869 322.368 142.869 322.752C142.869 323.168 142.725 323.515 142.437 323.792C142.149 324.059 141.776 324.192 141.317 324.192ZM149.814 325.264C150.88 325.264 151.739 325.584 152.39 326.224C153.051 326.864 153.382 327.813 153.382 329.072V334H150.886V329.456C150.886 328.773 150.736 328.267 150.438 327.936C150.139 327.595 149.707 327.424 149.142 327.424C148.512 327.424 148.011 327.621 147.638 328.016C147.264 328.4 147.078 328.976 147.078 329.744V334H144.582V325.392H146.966V326.4C147.296 326.037 147.707 325.76 148.198 325.568C148.688 325.365 149.227 325.264 149.814 325.264ZM164.318 325.392V332.56C164.318 334.139 163.907 335.312 163.086 336.08C162.265 336.848 161.065 337.232 159.486 337.232C158.654 337.232 157.865 337.131 157.118 336.928C156.371 336.725 155.753 336.432 155.262 336.048L156.254 334.256C156.617 334.555 157.075 334.789 157.63 334.96C158.185 335.141 158.739 335.232 159.294 335.232C160.158 335.232 160.793 335.035 161.198 334.64C161.614 334.256 161.822 333.669 161.822 332.88V332.512C161.171 333.227 160.265 333.584 159.102 333.584C158.313 333.584 157.587 333.413 156.926 333.072C156.275 332.72 155.758 332.229 155.374 331.6C154.99 330.971 154.798 330.245 154.798 329.424C154.798 328.603 154.99 327.877 155.374 327.248C155.758 326.619 156.275 326.133 156.926 325.792C157.587 325.44 158.313 325.264 159.102 325.264C160.35 325.264 161.299 325.675 161.95 326.496V325.392H164.318ZM159.598 331.536C160.259 331.536 160.798 331.344 161.214 330.96C161.641 330.565 161.854 330.053 161.854 329.424C161.854 328.795 161.641 328.288 161.214 327.904C160.798 327.509 160.259 327.312 159.598 327.312C158.937 327.312 158.393 327.509 157.966 327.904C157.539 328.288 157.326 328.795 157.326 329.424C157.326 330.053 157.539 330.565 157.966 330.96C158.393 331.344 158.937 331.536 159.598 331.536ZM174.044 325.264C175.378 325.264 176.402 325.584 177.116 326.224C177.831 326.853 178.188 327.808 178.188 329.088V334H175.852V332.928C175.383 333.728 174.508 334.128 173.228 334.128C172.567 334.128 171.991 334.016 171.5 333.792C171.02 333.568 170.652 333.259 170.396 332.864C170.14 332.469 170.012 332.021 170.012 331.52C170.012 330.72 170.311 330.091 170.908 329.632C171.516 329.173 172.45 328.944 173.708 328.944H175.692C175.692 328.4 175.527 327.984 175.196 327.696C174.866 327.397 174.37 327.248 173.708 327.248C173.25 327.248 172.796 327.323 172.348 327.472C171.911 327.611 171.538 327.803 171.228 328.048L170.332 326.304C170.802 325.973 171.362 325.717 172.012 325.536C172.674 325.355 173.351 325.264 174.044 325.264ZM173.852 332.448C174.279 332.448 174.658 332.352 174.988 332.16C175.319 331.957 175.554 331.664 175.692 331.28V330.4H173.98C172.956 330.4 172.444 330.736 172.444 331.408C172.444 331.728 172.567 331.984 172.812 332.176C173.068 332.357 173.415 332.448 173.852 332.448ZM191.171 325.264C192.249 325.264 193.102 325.584 193.731 326.224C194.371 326.853 194.691 327.803 194.691 329.072V334H192.195V329.456C192.195 328.773 192.051 328.267 191.763 327.936C191.486 327.595 191.086 327.424 190.563 327.424C189.977 327.424 189.513 327.616 189.171 328C188.83 328.373 188.659 328.933 188.659 329.68V334H186.163V329.456C186.163 328.101 185.619 327.424 184.531 327.424C183.955 327.424 183.497 327.616 183.155 328C182.814 328.373 182.643 328.933 182.643 329.68V334H180.147V325.392H182.531V326.384C182.851 326.021 183.241 325.744 183.699 325.552C184.169 325.36 184.681 325.264 185.235 325.264C185.843 325.264 186.393 325.387 186.883 325.632C187.374 325.867 187.769 326.213 188.067 326.672C188.419 326.224 188.862 325.877 189.395 325.632C189.939 325.387 190.531 325.264 191.171 325.264ZM200.101 325.264C201.434 325.264 202.458 325.584 203.173 326.224C203.887 326.853 204.245 327.808 204.245 329.088V334H201.909V332.928C201.439 333.728 200.565 334.128 199.285 334.128C198.623 334.128 198.047 334.016 197.557 333.792C197.077 333.568 196.709 333.259 196.453 332.864C196.197 332.469 196.069 332.021 196.069 331.52C196.069 330.72 196.367 330.091 196.965 329.632C197.573 329.173 198.506 328.944 199.765 328.944H201.749C201.749 328.4 201.583 327.984 201.253 327.696C200.922 327.397 200.426 327.248 199.765 327.248C199.306 327.248 198.853 327.323 198.405 327.472C197.967 327.611 197.594 327.803 197.285 328.048L196.389 326.304C196.858 325.973 197.418 325.717 198.069 325.536C198.73 325.355 199.407 325.264 200.101 325.264ZM199.909 332.448C200.335 332.448 200.714 332.352 201.045 332.16C201.375 331.957 201.61 331.664 201.749 331.28V330.4H200.037C199.013 330.4 198.501 330.736 198.501 331.408C198.501 331.728 198.623 331.984 198.869 332.176C199.125 332.357 199.471 332.448 199.909 332.448ZM213.292 332.08V334H205.612V332.496L209.996 327.312H205.724V325.392H213.148V326.896L208.764 332.08H213.292ZM214.591 325.392H217.087V334H214.591V325.392ZM215.839 324.192C215.38 324.192 215.007 324.059 214.719 323.792C214.431 323.525 214.287 323.195 214.287 322.8C214.287 322.405 214.431 322.075 214.719 321.808C215.007 321.541 215.38 321.408 215.839 321.408C216.298 321.408 216.671 321.536 216.959 321.792C217.247 322.048 217.391 322.368 217.391 322.752C217.391 323.168 217.247 323.515 216.959 323.792C216.671 324.059 216.298 324.192 215.839 324.192ZM224.336 325.264C225.402 325.264 226.261 325.584 226.912 326.224C227.573 326.864 227.904 327.813 227.904 329.072V334H225.408V329.456C225.408 328.773 225.258 328.267 224.96 327.936C224.661 327.595 224.229 327.424 223.664 327.424C223.034 327.424 222.533 327.621 222.16 328.016C221.786 328.4 221.6 328.976 221.6 329.744V334H219.104V325.392H221.488V326.4C221.818 326.037 222.229 325.76 222.72 325.568C223.21 325.365 223.749 325.264 224.336 325.264ZM238.84 325.392V332.56C238.84 334.139 238.429 335.312 237.608 336.08C236.786 336.848 235.586 337.232 234.008 337.232C233.176 337.232 232.386 337.131 231.64 336.928C230.893 336.725 230.274 336.432 229.784 336.048L230.776 334.256C231.138 334.555 231.597 334.789 232.152 334.96C232.706 335.141 233.261 335.232 233.816 335.232C234.68 335.232 235.314 335.035 235.72 334.64C236.136 334.256 236.344 333.669 236.344 332.88V332.512C235.693 333.227 234.786 333.584 233.624 333.584C232.834 333.584 232.109 333.413 231.448 333.072C230.797 332.72 230.28 332.229 229.896 331.6C229.512 330.971 229.32 330.245 229.32 329.424C229.32 328.603 229.512 327.877 229.896 327.248C230.28 326.619 230.797 326.133 231.448 325.792C232.109 325.44 232.834 325.264 233.624 325.264C234.872 325.264 235.821 325.675 236.472 326.496V325.392H238.84ZM234.12 331.536C234.781 331.536 235.32 331.344 235.736 330.96C236.162 330.565 236.376 330.053 236.376 329.424C236.376 328.795 236.162 328.288 235.736 327.904C235.32 327.509 234.781 327.312 234.12 327.312C233.458 327.312 232.914 327.509 232.488 327.904C232.061 328.288 231.848 328.795 231.848 329.424C231.848 330.053 232.061 330.565 232.488 330.96C232.914 331.344 233.458 331.536 234.12 331.536ZM248.566 325.264C249.9 325.264 250.924 325.584 251.638 326.224C252.353 326.853 252.71 327.808 252.71 329.088V334H250.374V332.928C249.905 333.728 249.03 334.128 247.75 334.128C247.089 334.128 246.513 334.016 246.022 333.792C245.542 333.568 245.174 333.259 244.918 332.864C244.662 332.469 244.534 332.021 244.534 331.52C244.534 330.72 244.833 330.091 245.43 329.632C246.038 329.173 246.972 328.944 248.23 328.944H250.214C250.214 328.4 250.049 327.984 249.718 327.696C249.388 327.397 248.892 327.248 248.23 327.248C247.772 327.248 247.318 327.323 246.87 327.472C246.433 327.611 246.06 327.803 245.75 328.048L244.854 326.304C245.324 325.973 245.884 325.717 246.534 325.536C247.196 325.355 247.873 325.264 248.566 325.264ZM248.374 332.448C248.801 332.448 249.18 332.352 249.51 332.16C249.841 331.957 250.076 331.664 250.214 331.28V330.4H248.502C247.478 330.4 246.966 330.736 246.966 331.408C246.966 331.728 247.089 331.984 247.334 332.176C247.59 332.357 247.937 332.448 248.374 332.448ZM259.901 325.264C260.968 325.264 261.827 325.584 262.477 326.224C263.139 326.864 263.469 327.813 263.469 329.072V334H260.973V329.456C260.973 328.773 260.824 328.267 260.525 327.936C260.227 327.595 259.795 327.424 259.229 327.424C258.6 327.424 258.099 327.621 257.725 328.016C257.352 328.4 257.165 328.976 257.165 329.744V334H254.669V325.392H257.053V326.4C257.384 326.037 257.795 325.76 258.285 325.568C258.776 325.365 259.315 325.264 259.901 325.264ZM274.293 322.128V334H271.909V333.008C271.291 333.755 270.395 334.128 269.221 334.128C268.411 334.128 267.675 333.947 267.013 333.584C266.363 333.221 265.851 332.704 265.477 332.032C265.104 331.36 264.917 330.581 264.917 329.696C264.917 328.811 265.104 328.032 265.477 327.36C265.851 326.688 266.363 326.171 267.013 325.808C267.675 325.445 268.411 325.264 269.221 325.264C270.32 325.264 271.179 325.611 271.797 326.304V322.128H274.293ZM269.653 332.08C270.283 332.08 270.805 331.867 271.221 331.44C271.637 331.003 271.845 330.421 271.845 329.696C271.845 328.971 271.637 328.395 271.221 327.968C270.805 327.531 270.283 327.312 269.653 327.312C269.013 327.312 268.485 327.531 268.069 327.968C267.653 328.395 267.445 328.971 267.445 329.696C267.445 330.421 267.653 331.003 268.069 331.44C268.485 331.867 269.013 332.08 269.653 332.08ZM50.9242 345.392V352.56C50.9242 354.139 50.5135 355.312 49.6922 356.08C48.8709 356.848 47.6709 357.232 46.0922 357.232C45.2602 357.232 44.4709 357.131 43.7242 356.928C42.9775 356.725 42.3589 356.432 41.8682 356.048L42.8602 354.256C43.2229 354.555 43.6815 354.789 44.2362 354.96C44.7909 355.141 45.3455 355.232 45.9002 355.232C46.7642 355.232 47.3989 355.035 47.8042 354.64C48.2202 354.256 48.4282 353.669 48.4282 352.88V352.512C47.7775 353.227 46.8709 353.584 45.7082 353.584C44.9189 353.584 44.1935 353.413 43.5322 353.072C42.8815 352.72 42.3642 352.229 41.9802 351.6C41.5962 350.971 41.4042 350.245 41.4042 349.424C41.4042 348.603 41.5962 347.877 41.9802 347.248C42.3642 346.619 42.8815 346.133 43.5322 345.792C44.1935 345.44 44.9189 345.264 45.7082 345.264C46.9562 345.264 47.9055 345.675 48.5562 346.496V345.392H50.9242ZM46.2042 351.536C46.8655 351.536 47.4042 351.344 47.8202 350.96C48.2469 350.565 48.4602 350.053 48.4602 349.424C48.4602 348.795 48.2469 348.288 47.8202 347.904C47.4042 347.509 46.8655 347.312 46.2042 347.312C45.5429 347.312 44.9989 347.509 44.5722 347.904C44.1455 348.288 43.9322 348.795 43.9322 349.424C43.9322 350.053 44.1455 350.565 44.5722 350.96C44.9989 351.344 45.5429 351.536 46.2042 351.536ZM61.3793 349.728C61.3793 349.76 61.3633 349.984 61.3313 350.4H54.8193C54.9366 350.933 55.214 351.355 55.6513 351.664C56.0886 351.973 56.6326 352.128 57.2833 352.128C57.7313 352.128 58.126 352.064 58.4673 351.936C58.8193 351.797 59.1446 351.584 59.4433 351.296L60.7713 352.736C59.9606 353.664 58.7766 354.128 57.2193 354.128C56.2486 354.128 55.39 353.941 54.6433 353.568C53.8966 353.184 53.3206 352.656 52.9153 351.984C52.51 351.312 52.3073 350.549 52.3073 349.696C52.3073 348.853 52.5046 348.096 52.8993 347.424C53.3046 346.741 53.854 346.213 54.5473 345.84C55.2513 345.456 56.0353 345.264 56.8993 345.264C57.742 345.264 58.5046 345.445 59.1873 345.808C59.87 346.171 60.4033 346.693 60.7873 347.376C61.182 348.048 61.3793 348.832 61.3793 349.728ZM56.9153 347.152C56.35 347.152 55.8753 347.312 55.4913 347.632C55.1073 347.952 54.8726 348.389 54.7873 348.944H59.0273C58.942 348.4 58.7073 347.968 58.3233 347.648C57.9393 347.317 57.47 347.152 56.9153 347.152ZM68.2931 353.584C68.0477 353.765 67.7437 353.904 67.3811 354C67.0291 354.085 66.6557 354.128 66.2611 354.128C65.2371 354.128 64.4424 353.867 63.8771 353.344C63.3224 352.821 63.0451 352.053 63.0451 351.04V347.504H61.7171V345.584H63.0451V343.488H65.5411V345.584H67.6851V347.504H65.5411V351.008C65.5411 351.371 65.6317 351.653 65.8131 351.856C66.0051 352.048 66.2717 352.144 66.6131 352.144C67.0077 352.144 67.3437 352.037 67.6211 351.824L68.2931 353.584ZM79.1774 353.584C78.9321 353.765 78.6281 353.904 78.2654 354C77.9134 354.085 77.5401 354.128 77.1454 354.128C76.1214 354.128 75.3268 353.867 74.7614 353.344C74.2068 352.821 73.9294 352.053 73.9294 351.04V347.504H72.6014V345.584H73.9294V343.488H76.4254V345.584H78.5694V347.504H76.4254V351.008C76.4254 351.371 76.5161 351.653 76.6974 351.856C76.8894 352.048 77.1561 352.144 77.4974 352.144C77.8921 352.144 78.2281 352.037 78.5054 351.824L79.1774 353.584ZM85.5106 345.264C86.5772 345.264 87.4359 345.584 88.0866 346.224C88.7479 346.864 89.0786 347.813 89.0786 349.072V354H86.5826V349.456C86.5826 348.773 86.4332 348.267 86.1346 347.936C85.8359 347.595 85.4039 347.424 84.8386 347.424C84.2092 347.424 83.7079 347.621 83.3346 348.016C82.9612 348.4 82.7746 348.976 82.7746 349.744V354H80.2786V342.128H82.7746V346.288C83.1052 345.957 83.5052 345.707 83.9746 345.536C84.4439 345.355 84.9559 345.264 85.5106 345.264ZM99.5668 349.728C99.5668 349.76 99.5508 349.984 99.5188 350.4H93.0068C93.1242 350.933 93.4015 351.355 93.8388 351.664C94.2762 351.973 94.8202 352.128 95.4708 352.128C95.9188 352.128 96.3135 352.064 96.6548 351.936C97.0068 351.797 97.3322 351.584 97.6308 351.296L98.9588 352.736C98.1482 353.664 96.9642 354.128 95.4068 354.128C94.4362 354.128 93.5775 353.941 92.8308 353.568C92.0842 353.184 91.5082 352.656 91.1028 351.984C90.6975 351.312 90.4948 350.549 90.4948 349.696C90.4948 348.853 90.6922 348.096 91.0868 347.424C91.4922 346.741 92.0415 346.213 92.7348 345.84C93.4388 345.456 94.2228 345.264 95.0868 345.264C95.9295 345.264 96.6922 345.445 97.3748 345.808C98.0575 346.171 98.5908 346.693 98.9748 347.376C99.3695 348.048 99.5668 348.832 99.5668 349.728ZM95.1028 347.152C94.5375 347.152 94.0628 347.312 93.6788 347.632C93.2948 347.952 93.0602 348.389 92.9748 348.944H97.2148C97.1295 348.4 96.8948 347.968 96.5108 347.648C96.1268 347.317 95.6575 347.152 95.1028 347.152ZM109.32 354.128C108.402 354.128 107.576 353.941 106.84 353.568C106.114 353.184 105.544 352.656 105.128 351.984C104.722 351.312 104.52 350.549 104.52 349.696C104.52 348.843 104.722 348.08 105.128 347.408C105.544 346.736 106.114 346.213 106.84 345.84C107.576 345.456 108.402 345.264 109.32 345.264C110.226 345.264 111.016 345.456 111.688 345.84C112.37 346.213 112.866 346.752 113.176 347.456L111.24 348.496C110.792 347.707 110.146 347.312 109.304 347.312C108.653 347.312 108.114 347.525 107.688 347.952C107.261 348.379 107.048 348.96 107.048 349.696C107.048 350.432 107.261 351.013 107.688 351.44C108.114 351.867 108.653 352.08 109.304 352.08C110.157 352.08 110.802 351.685 111.24 350.896L113.176 351.952C112.866 352.635 112.37 353.168 111.688 353.552C111.016 353.936 110.226 354.128 109.32 354.128ZM116.697 346.528C116.996 346.112 117.396 345.797 117.897 345.584C118.409 345.371 118.996 345.264 119.657 345.264V347.568C119.38 347.547 119.193 347.536 119.097 347.536C118.382 347.536 117.822 347.739 117.417 348.144C117.012 348.539 116.809 349.136 116.809 349.936V354H114.313V345.392H116.697V346.528ZM129.195 349.728C129.195 349.76 129.179 349.984 129.147 350.4H122.635C122.752 350.933 123.03 351.355 123.467 351.664C123.904 351.973 124.448 352.128 125.099 352.128C125.547 352.128 125.942 352.064 126.283 351.936C126.635 351.797 126.96 351.584 127.259 351.296L128.587 352.736C127.776 353.664 126.592 354.128 125.035 354.128C124.064 354.128 123.206 353.941 122.459 353.568C121.712 353.184 121.136 352.656 120.731 351.984C120.326 351.312 120.123 350.549 120.123 349.696C120.123 348.853 120.32 348.096 120.715 347.424C121.12 346.741 121.67 346.213 122.363 345.84C123.067 345.456 123.851 345.264 124.715 345.264C125.558 345.264 126.32 345.445 127.003 345.808C127.686 346.171 128.219 346.693 128.603 347.376C128.998 348.048 129.195 348.832 129.195 349.728ZM124.731 347.152C124.166 347.152 123.691 347.312 123.307 347.632C122.923 347.952 122.688 348.389 122.603 348.944H126.843C126.758 348.4 126.523 347.968 126.139 347.648C125.755 347.317 125.286 347.152 124.731 347.152ZM139.325 342.128V354H136.941V353.008C136.322 353.755 135.426 354.128 134.253 354.128C133.442 354.128 132.706 353.947 132.045 353.584C131.394 353.221 130.882 352.704 130.509 352.032C130.135 351.36 129.949 350.581 129.949 349.696C129.949 348.811 130.135 348.032 130.509 347.36C130.882 346.688 131.394 346.171 132.045 345.808C132.706 345.445 133.442 345.264 134.253 345.264C135.351 345.264 136.21 345.611 136.829 346.304V342.128H139.325ZM134.685 352.08C135.314 352.08 135.837 351.867 136.253 351.44C136.669 351.003 136.877 350.421 136.877 349.696C136.877 348.971 136.669 348.395 136.253 347.968C135.837 347.531 135.314 347.312 134.685 347.312C134.045 347.312 133.517 347.531 133.101 347.968C132.685 348.395 132.477 348.971 132.477 349.696C132.477 350.421 132.685 351.003 133.101 351.44C133.517 351.867 134.045 352.08 134.685 352.08ZM141.335 345.392H143.831V354H141.335V345.392ZM142.583 344.192C142.124 344.192 141.751 344.059 141.463 343.792C141.175 343.525 141.031 343.195 141.031 342.8C141.031 342.405 141.175 342.075 141.463 341.808C141.751 341.541 142.124 341.408 142.583 341.408C143.041 341.408 143.415 341.536 143.703 341.792C143.991 342.048 144.135 342.368 144.135 342.752C144.135 343.168 143.991 343.515 143.703 343.792C143.415 344.059 143.041 344.192 142.583 344.192ZM151.399 353.584C151.154 353.765 150.85 353.904 150.487 354C150.135 354.085 149.762 354.128 149.367 354.128C148.343 354.128 147.549 353.867 146.983 353.344C146.429 352.821 146.151 352.053 146.151 351.04V347.504H144.823V345.584H146.151V343.488H148.647V345.584H150.791V347.504H148.647V351.008C148.647 351.371 148.738 351.653 148.919 351.856C149.111 352.048 149.378 352.144 149.719 352.144C150.114 352.144 150.45 352.037 150.727 351.824L151.399 353.584ZM165.276 345.392L161.388 354.528C160.993 355.52 160.502 356.219 159.916 356.624C159.34 357.029 158.641 357.232 157.82 357.232C157.372 357.232 156.929 357.163 156.492 357.024C156.054 356.885 155.697 356.693 155.42 356.448L156.332 354.672C156.524 354.843 156.742 354.976 156.988 355.072C157.244 355.168 157.494 355.216 157.74 355.216C158.081 355.216 158.358 355.131 158.572 354.96C158.785 354.8 158.977 354.528 159.148 354.144L159.18 354.064L155.452 345.392H158.028L160.444 351.232L162.876 345.392H165.276ZM169.856 354.128C168.949 354.128 168.133 353.941 167.408 353.568C166.693 353.184 166.133 352.656 165.728 351.984C165.322 351.312 165.12 350.549 165.12 349.696C165.12 348.843 165.322 348.08 165.728 347.408C166.133 346.736 166.693 346.213 167.408 345.84C168.133 345.456 168.949 345.264 169.856 345.264C170.762 345.264 171.573 345.456 172.288 345.84C173.002 346.213 173.562 346.736 173.968 347.408C174.373 348.08 174.576 348.843 174.576 349.696C174.576 350.549 174.373 351.312 173.968 351.984C173.562 352.656 173.002 353.184 172.288 353.568C171.573 353.941 170.762 354.128 169.856 354.128ZM169.856 352.08C170.496 352.08 171.018 351.867 171.424 351.44C171.84 351.003 172.048 350.421 172.048 349.696C172.048 348.971 171.84 348.395 171.424 347.968C171.018 347.531 170.496 347.312 169.856 347.312C169.216 347.312 168.688 347.531 168.272 347.968C167.856 348.395 167.648 348.971 167.648 349.696C167.648 350.421 167.856 351.003 168.272 351.44C168.688 351.867 169.216 352.08 169.856 352.08ZM184.616 345.392V354H182.248V352.976C181.918 353.349 181.523 353.637 181.064 353.84C180.606 354.032 180.11 354.128 179.576 354.128C178.446 354.128 177.55 353.803 176.888 353.152C176.227 352.501 175.896 351.536 175.896 350.256V345.392H178.392V349.888C178.392 351.275 178.974 351.968 180.136 351.968C180.734 351.968 181.214 351.776 181.576 351.392C181.939 350.997 182.12 350.416 182.12 349.648V345.392H184.616ZM199.628 342.128V354H197.244V353.008C196.625 353.755 195.729 354.128 194.556 354.128C193.745 354.128 193.009 353.947 192.348 353.584C191.697 353.221 191.185 352.704 190.812 352.032C190.438 351.36 190.252 350.581 190.252 349.696C190.252 348.811 190.438 348.032 190.812 347.36C191.185 346.688 191.697 346.171 192.348 345.808C193.009 345.445 193.745 345.264 194.556 345.264C195.654 345.264 196.513 345.611 197.132 346.304V342.128H199.628ZM194.988 352.08C195.617 352.08 196.14 351.867 196.556 351.44C196.972 351.003 197.18 350.421 197.18 349.696C197.18 348.971 196.972 348.395 196.556 347.968C196.14 347.531 195.617 347.312 194.988 347.312C194.348 347.312 193.82 347.531 193.404 347.968C192.988 348.395 192.78 348.971 192.78 349.696C192.78 350.421 192.988 351.003 193.404 351.44C193.82 351.867 194.348 352.08 194.988 352.08ZM210.07 349.728C210.07 349.76 210.054 349.984 210.022 350.4H203.51C203.627 350.933 203.905 351.355 204.342 351.664C204.779 351.973 205.323 352.128 205.974 352.128C206.422 352.128 206.817 352.064 207.158 351.936C207.51 351.797 207.835 351.584 208.134 351.296L209.462 352.736C208.651 353.664 207.467 354.128 205.91 354.128C204.939 354.128 204.081 353.941 203.334 353.568C202.587 353.184 202.011 352.656 201.606 351.984C201.201 351.312 200.998 350.549 200.998 349.696C200.998 348.853 201.195 348.096 201.59 347.424C201.995 346.741 202.545 346.213 203.238 345.84C203.942 345.456 204.726 345.264 205.59 345.264C206.433 345.264 207.195 345.445 207.878 345.808C208.561 346.171 209.094 346.693 209.478 347.376C209.873 348.048 210.07 348.832 210.07 349.728ZM205.606 347.152C205.041 347.152 204.566 347.312 204.182 347.632C203.798 347.952 203.563 348.389 203.478 348.944H207.718C207.633 348.4 207.398 347.968 207.014 347.648C206.63 347.317 206.161 347.152 205.606 347.152ZM214.328 354.128C213.613 354.128 212.914 354.043 212.232 353.872C211.549 353.691 211.005 353.467 210.6 353.2L211.432 351.408C211.816 351.653 212.28 351.856 212.824 352.016C213.368 352.165 213.901 352.24 214.424 352.24C215.48 352.24 216.008 351.979 216.008 351.456C216.008 351.211 215.864 351.035 215.576 350.928C215.288 350.821 214.845 350.731 214.248 350.656C213.544 350.549 212.962 350.427 212.504 350.288C212.045 350.149 211.645 349.904 211.304 349.552C210.973 349.2 210.808 348.699 210.808 348.048C210.808 347.504 210.962 347.024 211.272 346.608C211.592 346.181 212.05 345.851 212.648 345.616C213.256 345.381 213.97 345.264 214.792 345.264C215.4 345.264 216.002 345.333 216.6 345.472C217.208 345.6 217.709 345.781 218.104 346.016L217.272 347.792C216.514 347.365 215.688 347.152 214.792 347.152C214.258 347.152 213.858 347.227 213.592 347.376C213.325 347.525 213.192 347.717 213.192 347.952C213.192 348.219 213.336 348.405 213.624 348.512C213.912 348.619 214.37 348.72 215 348.816C215.704 348.933 216.28 349.061 216.728 349.2C217.176 349.328 217.565 349.568 217.896 349.92C218.226 350.272 218.392 350.763 218.392 351.392C218.392 351.925 218.232 352.4 217.912 352.816C217.592 353.232 217.122 353.557 216.504 353.792C215.896 354.016 215.17 354.128 214.328 354.128ZM228.064 349.728C228.064 349.76 228.048 349.984 228.016 350.4H221.504C221.621 350.933 221.898 351.355 222.336 351.664C222.773 351.973 223.317 352.128 223.968 352.128C224.416 352.128 224.81 352.064 225.152 351.936C225.504 351.797 225.829 351.584 226.128 351.296L227.456 352.736C226.645 353.664 225.461 354.128 223.904 354.128C222.933 354.128 222.074 353.941 221.328 353.568C220.581 353.184 220.005 352.656 219.6 351.984C219.194 351.312 218.992 350.549 218.992 349.696C218.992 348.853 219.189 348.096 219.584 347.424C219.989 346.741 220.538 346.213 221.232 345.84C221.936 345.456 222.72 345.264 223.584 345.264C224.426 345.264 225.189 345.445 225.872 345.808C226.554 346.171 227.088 346.693 227.472 347.376C227.866 348.048 228.064 348.832 228.064 349.728ZM223.6 347.152C223.034 347.152 222.56 347.312 222.176 347.632C221.792 347.952 221.557 348.389 221.472 348.944H225.712C225.626 348.4 225.392 347.968 225.008 347.648C224.624 347.317 224.154 347.152 223.6 347.152ZM231.809 346.528C232.108 346.112 232.508 345.797 233.009 345.584C233.521 345.371 234.108 345.264 234.769 345.264V347.568C234.492 347.547 234.305 347.536 234.209 347.536C233.495 347.536 232.935 347.739 232.529 348.144C232.124 348.539 231.921 349.136 231.921 349.936V354H229.425V345.392H231.809V346.528ZM244.794 345.392L241.162 354H238.586L234.97 345.392H237.546L239.93 351.248L242.394 345.392H244.794ZM253.711 349.728C253.711 349.76 253.695 349.984 253.663 350.4H247.151C247.268 350.933 247.545 351.355 247.983 351.664C248.42 351.973 248.964 352.128 249.615 352.128C250.063 352.128 250.457 352.064 250.799 351.936C251.151 351.797 251.476 351.584 251.775 351.296L253.103 352.736C252.292 353.664 251.108 354.128 249.551 354.128C248.58 354.128 247.721 353.941 246.975 353.568C246.228 353.184 245.652 352.656 245.247 351.984C244.841 351.312 244.639 350.549 244.639 349.696C244.639 348.853 244.836 348.096 245.231 347.424C245.636 346.741 246.185 346.213 246.879 345.84C247.583 345.456 248.367 345.264 249.231 345.264C250.073 345.264 250.836 345.445 251.519 345.808C252.201 346.171 252.735 346.693 253.119 347.376C253.513 348.048 253.711 348.832 253.711 349.728ZM249.247 347.152C248.681 347.152 248.207 347.312 247.823 347.632C247.439 347.952 247.204 348.389 247.119 348.944H251.359C251.273 348.4 251.039 347.968 250.655 347.648C250.271 347.317 249.801 347.152 249.247 347.152ZM256.016 354.128C255.579 354.128 255.211 353.979 254.912 353.68C254.614 353.381 254.464 353.008 254.464 352.56C254.464 352.101 254.614 351.733 254.912 351.456C255.211 351.168 255.579 351.024 256.016 351.024C256.454 351.024 256.822 351.168 257.12 351.456C257.419 351.733 257.568 352.101 257.568 352.56C257.568 353.008 257.419 353.381 257.12 353.68C256.822 353.979 256.454 354.128 256.016 354.128Z" fill="#CCDFCB"/>
</svg>
