<svg width="300" height="300" viewBox="0 0 300 300" fill="none" xmlns="http://www.w3.org/2000/svg">
<path d="M175.082 167.735C175.082 115.837 219.49 92.2245 243.918 92.2245C268.347 92.2245 278.612 114.163 278.612 128.061C278.612 141.959 265.061 159.449 249.735 159.449C234.408 159.449 239.082 151.286 223.204 151.286C191.327 152.612 189.204 200.878 225.245 201.694C244.367 199.449 246.837 186.347 248.061 179.878C248.592 173.102 261.429 174 258.408 185.061C255.388 196.122 238.571 214.286 219.306 214.286C200.041 214.286 175.082 202.674 175.082 167.735Z" fill="#FF7F11"/>
<path d="M17.8163 176.041C32.898 159.551 61.5102 116.02 76.4286 95.0204C76.4286 95.0204 112.143 63.5714 101.918 111.633C92.449 154.796 74.8776 173.959 77.7347 192.469C77.7347 192.469 80.4286 217.286 96.551 194C108.653 170.735 111.857 150 121.306 151.143C130.755 152.286 123.347 170.286 116.245 190.449C118.061 200.408 147.041 150.367 157.878 151.041C168.714 151.714 159.265 216.347 145.857 211.878C132.449 207.408 146.306 170.02 147.898 164.102C134.551 179.918 98.2449 235.898 98.9184 194.204C91.5715 207.388 77.5306 219.776 66.4082 213.776C49.8368 204.857 56.8368 146.429 62.5306 132.286C53.0612 154.878 21.3674 185.469 17.8163 176.041Z" fill="#CCDFCB"/>
</svg>
