<svg width="13" height="13" viewBox="0 0 13 13" fill="none" xmlns="http://www.w3.org/2000/svg">
<path fill-rule="evenodd" clip-rule="evenodd" d="M6.5 13C10.0899 13 13 10.0899 13 6.5C13 2.91015 10.0899 0 6.5 0C2.91015 0 0 2.91015 0 6.5C0 10.0899 2.91015 13 6.5 13ZM7.64243 6.49995L9.76339 4.37876C10.0789 4.06327 10.0789 3.55192 9.76327 3.23643C9.44791 2.92119 8.93679 2.92119 8.62119 3.23643L6.49999 5.35763L4.37863 3.23643C4.06309 2.92119 3.55203 2.92119 3.23661 3.23643C2.92113 3.55192 2.92113 4.06327 3.23661 4.37876L5.35763 6.49993L3.23673 8.62103C2.92125 8.93675 2.92125 9.44801 3.23673 9.76347C3.39448 9.92122 3.60103 9.99998 3.80771 9.99998C4.01446 9.99998 4.22114 9.9211 4.37875 9.76347L6.50001 7.64216L8.62143 9.76349C8.77894 9.92124 8.98563 10 9.19253 10C9.39909 10 9.60576 9.92112 9.76339 9.76349C10.0789 9.44789 10.0789 8.93665 9.76339 8.62105L7.64243 6.49995Z" fill="white"/>
</svg>
