<svg width="25" height="25" viewBox="0 0 25 25" fill="none" xmlns="http://www.w3.org/2000/svg">
<g clip-path="url(#clip0)">
<path d="M23.0299 11.33H13.6701V1.96993C13.6701 1.32423 13.1458 0.800003 12.4999 0.800003C11.8542 0.800003 11.33 1.32423 11.33 1.96993V11.33H1.96992C1.32422 11.33 0.799988 11.8542 0.799988 12.4999C0.799988 13.1458 1.32422 13.6701 1.96992 13.6701H11.33V23.0299C11.33 23.6758 11.8542 24.2001 12.4999 24.2001C13.1458 24.2001 13.6701 23.6758 13.6701 23.0299V13.6701H23.0299C23.6758 13.6701 24.2001 13.1458 24.2001 12.4999C24.2001 11.8542 23.6758 11.33 23.0299 11.33Z" fill="white"/>
</g>
<defs>
<clipPath id="clip0">
<rect width="23.4" height="23.4" fill="white" transform="translate(0.799988 0.800003)"/>
</clipPath>
</defs>
</svg>
