<svg width="10" height="10" viewBox="0 0 21 26" fill="none" xmlns="http://www.w3.org/2000/svg">
<path d="M0.75666 10.6661C1.01288 10.0366 1.23824 9.39601 1.51818 8.77419C1.76064 8.23562 2.16748 7.91483 2.62635 7.64076C2.88855 7.48433 3.18206 7.38302 3.4616 7.27253C3.54698 7.2388 3.60161 7.13509 3.58374 7.04337C3.538 6.80898 3.48711 6.56125 3.45429 6.31111C3.43442 6.15892 3.47155 5.99979 3.47338 5.84369C3.47585 5.63181 3.47386 5.41984 3.46542 5.20817C3.45067 4.84143 3.54332 4.49551 3.62947 4.14423C3.68468 3.91897 3.64438 3.66746 3.70905 3.44686C3.77615 3.21753 3.69597 2.9396 3.91056 2.75675C3.91535 2.75268 3.91803 2.74251 3.91734 2.73557C3.88306 2.37934 4.1401 2.1302 4.25744 1.83363C4.37658 1.53265 4.57232 1.24558 4.90243 1.10186C5.01946 1.05098 5.12649 0.976293 5.24696 0.895254C5.32337 0.843747 5.40972 0.875897 5.4397 0.964372C5.54312 1.27025 5.64751 1.54735 5.70868 1.83396C5.76912 2.11836 5.91628 2.37594 5.87107 2.70201C5.83858 2.93536 5.98014 3.19094 6.02868 3.43988C6.05439 3.57155 6.06779 3.70559 6.08156 3.84067C6.09099 3.93372 6.14883 3.9522 6.20586 3.8788C6.34258 3.70256 6.46289 3.52544 6.62748 3.42173C6.91088 3.24328 7.12149 2.97773 7.39908 2.80926C7.83265 2.54624 8.27316 2.27272 8.74511 2.10495C9.213 1.93851 9.72106 1.87803 10.2167 1.81223C10.3472 1.79495 10.4866 1.84733 10.6435 1.89734C10.7308 1.92513 10.7685 2.01003 10.7262 2.09307C10.5802 2.38001 10.4493 2.64792 10.3015 2.90566C10.0567 3.33259 9.80242 3.7544 9.5373 4.1684C9.38697 4.40313 9.20455 4.61613 9.04045 4.84189C8.87176 5.07425 8.71599 5.31695 8.53913 5.5425C8.41666 5.6986 8.2652 5.8306 8.13225 5.97852C7.98578 6.14159 7.83577 6.30259 7.70469 6.47813C7.34558 6.95909 7.20606 7.52413 7.13132 8.11134C7.12852 8.13369 7.12518 8.15774 7.11523 8.17743C6.92692 8.5469 7.12482 8.78312 7.38035 9.00547C7.41634 9.03683 7.41931 9.10699 7.43937 9.15854C7.47365 9.24631 7.4927 9.34683 7.54742 9.41852C7.71696 9.64 7.7486 9.89591 7.76964 10.1625C7.78272 10.3277 7.83065 10.4896 7.85364 10.6545C7.8573 10.6809 7.85531 10.7082 7.85149 10.7334C7.84503 10.7767 7.87318 10.8779 7.91116 10.963C8.05223 11.2801 8.15077 11.6287 8.44181 11.8425C8.51622 11.897 8.53726 11.9223 8.47877 11.9152C8.42028 11.9081 8.3715 11.9077 8.36967 11.9143C8.36784 11.9209 8.43616 11.9528 8.52183 11.9855C8.53474 11.9904 8.54786 11.9953 8.56094 12.0004C8.64677 12.0331 8.67663 12.0705 8.62772 12.0841C8.57886 12.0977 8.60899 12.1339 8.69535 12.1653C8.77208 12.1931 8.84601 12.2198 8.92156 12.2473C9.00791 12.2785 9.04484 12.3207 9.00426 12.3414C8.96364 12.3621 8.99431 12.3951 9.07254 12.4153C9.15077 12.4354 9.20544 12.4724 9.19452 12.4975C9.18355 12.5226 9.24757 12.5575 9.33705 12.5768C9.49814 12.6115 9.65952 12.6475 9.82297 12.6627C9.87582 12.6676 9.93264 12.6591 9.9887 12.6429C10.0767 12.6173 10.2164 12.5754 10.3079 12.5774C10.8428 12.5892 11.7568 12.7598 12.1267 12.8328C12.2165 12.8506 12.363 12.8735 12.4542 12.8832C12.5782 12.8962 12.7104 12.9101 12.8468 12.9245C12.9378 12.9342 12.9999 12.9531 12.9854 12.967C12.9709 12.9809 13.0296 13.0162 13.1165 13.0458C13.5159 13.1824 13.9227 13.3214 14.3312 13.461C14.4181 13.4907 14.4652 13.5279 14.4362 13.5442C14.4071 13.5605 14.4524 13.6025 14.5386 13.6344C14.7691 13.7195 14.9998 13.7891 15.1804 13.9274C15.376 14.0772 15.5933 14.1965 15.7862 14.3547C16.0034 14.5326 16.3059 14.6016 16.5714 14.718C16.5966 14.729 16.6217 14.74 16.6549 14.7548C16.7011 14.7751 16.7018 14.8085 16.6562 14.8294C16.6106 14.8502 16.6334 14.9124 16.7068 14.9683C16.8664 15.0897 17.0241 15.2098 17.1836 15.3312C17.257 15.3871 17.2946 15.4452 17.2676 15.4611C17.2406 15.4771 17.2837 15.5264 17.3639 15.5715C17.4179 15.6018 17.4712 15.6316 17.524 15.6615C17.6042 15.7065 17.6655 15.7506 17.6611 15.7599C17.6565 15.7693 17.6033 15.7677 17.5419 15.7563C17.4808 15.745 17.4847 15.7884 17.5509 15.853C17.8425 16.1377 18.1246 16.4134 18.4077 16.6881C18.4368 16.7164 18.4678 16.7426 18.5066 16.7754C18.5625 16.8224 18.5476 16.8438 18.4738 16.823C18.4 16.8023 18.3815 16.8487 18.4314 16.9272C18.5724 17.1482 18.7093 17.3667 18.856 17.578C18.9501 17.7134 19.0701 17.8302 19.1768 17.9566C19.1802 17.9607 19.1795 17.9683 19.178 17.9767C19.1762 17.9881 19.1457 17.9916 19.1097 17.9849C19.0738 17.9781 19.0884 18.0338 19.1422 18.1096C19.2315 18.2348 19.3187 18.3574 19.4135 18.4904C19.4674 18.566 19.452 18.595 19.3792 18.555C19.3064 18.515 19.277 18.5524 19.3159 18.6372C19.4596 18.9496 19.6094 19.2209 19.6323 19.5481C19.6435 19.7093 19.7264 19.8651 19.8071 20.0393C19.8462 20.1238 19.8418 20.1706 19.802 20.1414C19.7622 20.1123 19.7423 20.1636 19.7579 20.2558C19.8315 20.6902 19.9033 21.1144 19.9743 21.5339C19.9899 21.6261 19.9786 21.6906 19.949 21.6779C19.9193 21.6652 19.916 21.7277 19.9415 21.8177C19.9617 21.8887 19.9813 21.9573 20.0007 22.026C20.0262 22.1158 20.0202 22.1816 19.9876 22.1728C19.9548 22.1639 19.9553 22.2282 19.9712 22.3204C20.0126 22.5612 19.9856 22.8163 20.1581 23.0142C20.219 23.084 20.249 23.1234 20.2052 23.1234C20.1615 23.1234 20.1696 23.1849 20.2231 23.2609C20.2377 23.2816 20.2521 23.3023 20.267 23.3233C20.3206 23.3992 20.3347 23.4507 20.2987 23.4381C20.2627 23.4254 20.2306 23.4198 20.2269 23.4254C20.2244 23.429 20.2224 23.4326 20.2223 23.4362C20.2211 23.4585 20.22 23.4813 20.2224 23.5033C20.2685 23.9091 20.1403 24.2239 19.7622 24.3986C19.4881 24.5254 19.2902 24.8105 18.9323 24.7757C18.8201 24.7649 18.6958 24.8882 18.5763 24.9484C18.5716 24.9508 18.5647 24.9486 18.5572 24.9455C18.547 24.9414 18.5465 24.9194 18.556 24.8962C18.5657 24.8729 18.5009 24.8696 18.4112 24.8889C18.3469 24.9028 18.2824 24.9167 18.2173 24.9308C18.1276 24.9501 18.0668 24.9403 18.0811 24.9089C18.0953 24.8777 18.038 24.8809 17.9512 24.9103C17.2014 25.1633 16.4372 25.0582 15.6794 25.0728C15.5879 25.0745 15.5238 25.0633 15.5359 25.0453C15.5481 25.0272 15.4837 25.0126 15.392 25.0128C15.1313 25.0133 14.8685 25.0143 14.6058 25.0115C14.4837 25.0101 14.3609 25.0024 14.2399 24.9857C13.9708 24.9486 13.702 24.9089 13.4345 24.8615C13.1411 24.8095 12.8448 24.9281 12.5424 24.7474C12.3654 24.6417 12.2045 24.5615 12.1422 24.422C12.1042 24.337 12.0441 24.2383 11.9549 24.2168C11.7892 24.1766 11.6325 24.14 11.4794 24.0919C11.2648 24.0245 11.0794 23.9448 11.0339 23.6549C11.0018 23.4489 11.0179 23.26 11.2005 23.1504C11.2184 23.1397 11.2282 23.1151 11.235 23.0894C11.2449 23.0509 11.3248 23.0126 11.416 23.0048C11.4362 23.0031 11.4569 23.0012 11.4781 22.9993C11.5693 22.9915 11.605 22.9202 11.5578 22.8399C11.5305 22.7934 11.5049 22.7501 11.4804 22.7082C11.4332 22.628 11.384 22.5691 11.3704 22.5763C11.3568 22.5836 11.3419 22.6452 11.3372 22.7138C11.3326 22.7825 11.2958 22.7704 11.2554 22.6864C11.2355 22.6452 11.2164 22.6057 11.198 22.5672C11.1575 22.4833 11.1148 22.4188 11.1027 22.4231C11.0906 22.4275 11.0754 22.4857 11.0689 22.5526C11.0624 22.6196 11.0296 22.6035 10.9954 22.5165C10.9845 22.4886 10.9735 22.4608 10.9625 22.4323C10.9285 22.3454 10.896 22.3378 10.8899 22.415C10.8837 22.4923 10.861 22.4808 10.8233 22.3953C10.7479 22.225 10.6298 22.0968 10.4446 22.0162C10.1885 21.9051 9.94207 21.7705 9.68601 21.6588C9.64291 21.64 9.55046 21.6672 9.51931 21.7056C9.3942 21.8595 9.28782 22.0292 9.1673 22.1875C9.0409 22.3537 8.90962 22.5164 8.77439 22.6752C8.60221 22.8772 8.42385 23.0736 8.24854 23.2729C8.23859 23.2843 8.22982 23.2965 8.22068 23.3095C8.2063 23.3306 8.1814 23.3261 8.16535 23.3C8.14931 23.2739 8.10617 23.3221 8.06888 23.4077C8.05581 23.4376 8.04256 23.4681 8.02896 23.4997C7.99187 23.5853 7.95475 23.6077 7.9463 23.5497C7.93785 23.4917 7.88894 23.5071 7.83723 23.5842C7.69929 23.79 7.56574 23.9893 7.43547 24.1835C7.38381 24.2608 7.34184 24.275 7.34184 24.2155C7.34184 24.156 7.30025 24.1708 7.24903 24.2482C7.17247 24.364 7.09972 24.4738 7.02197 24.5912C6.97059 24.6687 6.93696 24.6721 6.94642 24.5987C6.95601 24.5253 6.95207 24.4572 6.93781 24.4467C6.92355 24.436 6.86819 24.4888 6.81433 24.5643C6.78366 24.6072 6.7532 24.65 6.72269 24.693C6.66883 24.7685 6.60717 24.8111 6.58893 24.785C6.57004 24.7581 6.56822 24.7452 6.5674 24.7322C6.56692 24.7251 6.57305 24.7175 6.5724 24.7104C6.5722 24.7077 6.56874 24.7055 6.56261 24.7013C6.55652 24.697 6.49153 24.7377 6.41728 24.7924C6.36658 24.8297 6.31516 24.8678 6.26219 24.9068C6.18794 24.9615 6.13124 24.9717 6.13558 24.9297C6.13985 24.8877 6.07474 24.8826 5.9909 24.9201C5.91852 24.9524 5.84959 24.9811 5.77798 24.9926C5.5945 25.0224 5.39644 24.9865 5.22129 25.0378C4.87079 25.1404 4.57744 24.9828 4.34408 24.7928C4.19773 24.6737 4.06057 24.6414 3.9013 24.6267C3.81015 24.6183 3.68208 24.5632 3.61558 24.4988C3.52444 24.4103 3.43097 24.3195 3.34262 24.2339C3.27633 24.1695 3.25412 24.0487 3.29522 23.9649C3.39779 23.7558 3.51018 23.5738 3.72976 23.5071C3.81742 23.4805 3.85885 23.4516 3.81677 23.4155C3.77469 23.3794 3.81478 23.35 3.90625 23.35C3.9318 23.35 3.95646 23.35 3.9805 23.35C4.07198 23.35 4.14623 23.3453 4.14639 23.3394C4.14655 23.3334 4.11061 23.3188 4.06589 23.3067C4.02112 23.2945 4.05212 23.2526 4.13514 23.2131C4.16 23.2014 4.18437 23.1898 4.20874 23.1782C4.29177 23.1389 4.32674 23.0989 4.28681 23.0892C4.24688 23.0794 4.27983 23.0353 4.36041 22.9907C4.51237 22.9064 4.66485 22.8213 4.81912 22.7392C4.85162 22.722 4.88659 22.7096 4.92786 22.696C4.98936 22.6759 5.00008 22.6472 4.95223 22.6328C4.90434 22.6186 4.90816 22.5862 4.96052 22.5607C5.01288 22.5351 5.00528 22.5063 4.9433 22.4964C4.88131 22.4866 4.89971 22.4496 4.9842 22.4139C5.05532 22.3839 5.12592 22.3541 5.19335 22.3256C5.27787 22.2898 5.31699 22.2204 5.27787 22.1729C5.24274 22.1302 5.21703 22.0978 5.22434 22.0785C5.24388 22.0268 5.27211 21.9787 5.30371 21.9294C5.35412 21.8512 5.36988 21.7897 5.33787 21.7911C5.3059 21.7924 5.29164 21.7538 5.30574 21.7048C5.31435 21.6752 5.32227 21.6455 5.32828 21.6155C5.36472 21.433 5.36305 21.2321 5.44063 21.0707C5.54669 20.8499 5.52602 20.6789 5.40684 20.5257C5.34985 20.4524 5.27739 20.4257 5.26167 20.4506C5.24574 20.4755 5.20468 20.4394 5.17003 20.3699C5.13526 20.3005 5.09858 20.2652 5.08814 20.2911C5.0777 20.3171 5.02133 20.2799 4.96235 20.2084C4.91328 20.149 4.86328 20.0883 4.81238 20.0266C4.7534 19.9551 4.6952 19.9257 4.68281 19.9612C4.67017 19.9966 4.63374 19.9542 4.59231 19.8707C4.38499 19.4514 4.03465 19.1186 3.95358 18.6403C3.95325 18.6383 3.94927 18.6368 3.9448 18.6354C3.93932 18.6337 3.91499 18.6512 3.89058 18.6746C3.8662 18.6979 3.82562 18.6441 3.79995 18.5542C3.65677 18.0509 3.51822 17.5635 3.37687 17.0666C3.35132 16.9768 3.28373 16.8448 3.23003 16.769C2.96454 16.3961 2.89659 16.1433 2.88745 15.9944C2.88164 15.901 2.96816 15.7803 3.0169 15.7011C3.11284 15.5448 3.09229 15.3781 3.10476 15.2148C3.12166 14.9959 3.09794 14.7737 3.08006 14.556C3.07243 14.4627 3.05837 14.3915 3.03896 14.4006C3.0197 14.4095 3.02039 14.3417 3.01873 14.2482C3.01195 13.8471 2.6651 13.7455 2.36992 13.6194C2.28539 13.5834 2.15399 13.5279 2.0734 13.5018C2.02255 13.4854 1.97446 13.4656 1.93717 13.433C1.83192 13.3414 1.75487 13.2152 1.66839 13.1016C1.58935 12.9977 1.49401 12.9209 1.38898 12.8414C1.20948 12.7058 1.08035 12.5023 0.920271 12.3376C0.787407 12.201 0.64983 12.065 0.497023 11.9537C0.302458 11.8122 0.260864 11.5434 0.398075 11.3289C0.532402 11.1175 0.662342 10.898 0.75666 10.6661Z" fill="#056571"/>
</svg>
