<svg width="22" height="22" viewBox="0 0 22 22" fill="none" xmlns="http://www.w3.org/2000/svg">
<path d="M0.387894 12.9905C1.0447 13.102 1.34876 11.7303 2.55962 11.7762C2.55962 11.7762 3.63211 9.67633 3.82744 11.9628C4.54718 12.1284 5.78921 12.8584 7.06367 12.7251C8.33861 12.5929 11.5089 10.5055 14.385 11.5981C14.7172 11.6928 15.0673 11.5963 14.385 10.9461C12.8929 9.52412 10.753 9.3126 10.7568 5.56752C10.7616 1.22036 14.9082 0.000684154 16.8683 1.18998e-06C18.8991 -0.00107204 22.0058 0.723455 22 3.58702C21.995 6.07818 20.4395 6.62777 20.4395 6.62777C20.4395 6.62777 20.53 4.27526 18.8625 4.27526C17.1957 4.27526 17.0979 5.46781 17.162 5.86549C17.4579 8.11839 20.039 10.7693 19.9085 13.1887C19.9085 13.1887 19.9739 15.1444 18.405 16.6682C17.8057 17.2166 17.8221 19.9498 17.8164 20.2154C17.7925 21.3134 17.2615 21.8716 16.2151 21.9048C15.1688 21.9372 14.0657 21.9915 14.0583 21.6068C14.05 21.2083 15.7249 20.9759 16.1502 20.645C16.5752 20.3144 16.4113 20.241 15.9538 19.9956C15.4953 19.7512 15.0059 19.2533 14.5817 18.8224C13.7636 19.1875 11.1489 19.7178 8.59985 18.7238C8.27308 19.5187 6.75354 21.5596 6.41177 21.8258C6.06363 22.0966 4.157 22.0907 4.28777 21.527C4.41786 20.9645 5.16839 21.1749 5.52768 20.347C5.88697 19.5188 6.58862 17.7111 3.74575 15.4574C3.17082 15.0281 2.4787 14.9183 2.18474 14.9033C1.52033 14.8674 1.12053 14.8704 0.575335 14.2411C0.0290833 13.6109 -0.298553 12.8906 0.387894 12.9905Z" fill="#056571"/>
</svg>
